<?xml version="1.0" encoding="utf-8"?>
<!-- Generator: Adobe Illustrator 24.3.0, SVG Export Plug-In . SVG Version: 6.00 Build 0)  -->
<svg version="1.1" id="レイヤー_1" xmlns="http://www.w3.org/2000/svg" xmlns:xlink="http://www.w3.org/1999/xlink" x="0px"
	 y="0px" viewBox="0 0 76 76" style="enable-background:new 0 0 76 76;" xml:space="preserve">
<style type="text/css">
	.st0{fill-rule:evenodd;clip-rule:evenodd;fill:#004695;}
	.st1{fill:#004695;}
</style>
<g>
	<g>
		<polygon points="21.9,63.7 19.4,63.7 15.9,67.3 15.9,63.7 14,63.7 14,73 15.9,73 15.9,69.8 16.8,68.9 19.7,73 22,73 18.1,67.6 		
			"/>
		<polygon points="27,67.3 24.8,63.7 22.6,63.7 26.1,69.2 26.1,73 28,73 28,69.2 31.4,63.7 29.2,63.7 		"/>
		<path d="M36.3,63.4c-2.4,0-4.1,2-4.1,4.9c0,2.9,1.6,4.9,4.1,4.9c2.4,0,4.1-2,4.1-4.9C40.3,65.4,38.7,63.4,36.3,63.4z M36.3,71.5
			c-1.6,0-2.1-1.6-2.1-3.2c0-1.5,0.6-3.2,2.1-3.2c1.3,0,2.2,1.2,2.2,3.2C38.4,69.9,37.9,71.5,36.3,71.5z"/>
		<polygon points="49.9,69.5 48.3,63.7 46.6,63.7 45,69.5 43.7,63.7 41.8,63.7 44.1,73 45,73 45,73 45,73 45.8,73 47.5,66.9 
			49.1,73 50,73 50,73 50,73 50.8,73 53.1,63.7 51.2,63.7 		"/>
		<path d="M59.4,63.7h-1.8L54.2,73h2l0.8-2.4h2.9l0.8,2.4h2L59.4,63.7z M57.6,68.9l0.9-2.6l0.9,2.6H57.6z"/>
	</g>
	<g>
		<g>
			<g>
				<g>
					<path class="st0" d="M70.7,31.8c-0.1,2.8-0.6,5.1-2.3,6.9c-2.3,2.6-5.3,3.2-8.6,2.5c-2-0.4-3.9-1.3-5.8-1.8
						c-3.7-1-7.2-0.5-10.2,1.9c-2.1,1.7-3.2,4-4,6.6c-0.2,0.7-0.3,1.5-0.5,2.2c-0.2,0.6-0.6,1.2-1.3,1.1c-0.7,0-1.2-0.6-1.3-1.3
						c-0.1-0.5-0.2-1-0.3-1.5c-0.8-3.5-2.5-6.5-5.8-8.3c-2.8-1.6-5.8-1.7-8.8-0.7c-2.1,0.7-4.1,1.5-6.3,1.8
						c-4.5,0.7-8.8-2.4-9.5-6.9c-0.4-2.3-0.3-4.5,0.7-6.6c1.6-3.4,4.3-5.2,7.9-5.6c5.4-0.6,9.9,1.4,13.4,5.6
						c3.8,4.5,6.4,9.8,8.8,15.2c0.3,0.7,0.6,1.3,0.9,2c0.1,0.3,0.1,0.7,0.5,0.7c0.4,0,0.4-0.4,0.5-0.7c1.8-3.8,3.4-7.7,5.6-11.3
						c2-3.2,4.1-6.3,7.2-8.7c4-3,10.9-4.4,15.8-0.8C69.7,26.2,70.6,28.9,70.7,31.8z"/>
					<path class="st0" d="M37.9,44.1c-0.5-1.6-0.5-3.2-0.7-4.7c-0.4-2.9-0.7-5.8-1.8-8.5c-1-2.4-2.6-4.4-3.9-6.5
						c-1.8-2.9-3.5-5.9-3.9-9.4C27,10.1,29.9,5,34.2,3.2C39,1.2,44.7,3.3,47.1,8c2.2,4.2,1.8,8.3-0.3,12.5c-1.2,2.3-2.6,4.5-4.1,6.6
						c-2.1,3-3.1,6.3-3.7,9.9c-0.3,2-0.5,4-0.8,6C38.3,43.3,38.3,43.7,37.9,44.1z"/>
				</g>
			</g>
		</g>
		<path class="st1" d="M46.6,47.8c2.7,0.5,4.4,1.3,4.4,2.1c0,1.6-5.9,2.9-13.1,2.9s-13.1-1.3-13.1-2.9c0-0.9,1.7-1.6,4.4-2.1
			c-4.7,0.6-7.8,1.8-7.8,3.1c0,2,7.4,3.6,16.4,3.6c9.1,0,16.4-1.6,16.4-3.6C54.3,49.5,51.2,48.4,46.6,47.8z"/>
		<path class="st1" d="M54.3,47.3c5,1,8.2,2.4,8.2,4c0,3-11,5.4-24.6,5.4c-13.6,0-24.6-2.4-24.6-5.4c0-1.6,3.2-3,8.2-4
			C12.8,48.5,7,50.6,7,53c0,3.7,13.8,6.8,30.9,6.8c17,0,30.9-3,30.9-6.8C68.7,50.6,63,48.5,54.3,47.3z"/>
	</g>
</g>
</svg>
