<?xml version="1.0" encoding="utf-8"?>
<!-- Generator: Adobe Illustrator 23.0.1, SVG Export Plug-In . SVG Version: 6.00 Build 0)  -->
<svg version="1.1" id="レイヤー_1" xmlns="http://www.w3.org/2000/svg" xmlns:xlink="http://www.w3.org/1999/xlink" x="0px"
	 y="0px" width="54px" height="54px" viewBox="0 0 54 54" style="enable-background:new 0 0 54 54;" xml:space="preserve">
<style type="text/css">
	.st0{fill:#FFFFFF;}
	.st1{fill:#E7E5E3;}
	.st2{fill:#CD2134;}
</style>
<g>
	<circle class="st0" cx="44.5" cy="9.6" r="8.3"/>
	<polygon class="st1" points="14.8,37.9 3.1,49.6 4.4,50.9 16.9,38.3 	"/>
	<path class="st2" d="M18.3,15.6c5.5-5.5,13.9-5.2,18.8-1.3l1.6,1.2c-3-3.1-7.2-4.9-11.8-4.9c-9.1,0-16.4,7.4-16.4,16.4
		c0,4.3,1.7,8.3,4.4,11.2c1.5,1.7,3.7,2.9,6.2,2.9c4.5,0,8.2-3.7,8.2-8.2s-3.7-8.2-8.2-8.2c-2.7,0-5.2,1.3-6.6,3.4
		c-0.1-0.6-0.2-1.4-0.2-2.3C14.2,23.2,14.9,19,18.3,15.6z"/>
	<path class="st2" d="M35.6,38.5c-5.5,5.5-13.9,5.2-18.8,1.3l-1.6-1.2c3,3.1,7.2,4.9,11.8,4.9c9.1,0,16.4-7.3,16.4-16.4
		c0-4.3-1.6-8.3-4.4-11.2c-1.5-1.7-3.7-2.9-6.2-2.9c-4.5,0-8.2,3.7-8.2,8.2s3.7,8.2,8.2,8.2c2.7,0,5.2-1.3,6.6-3.4
		c0.1,0.6,0.2,1.4,0.2,2.3C39.6,30.9,39,35,35.6,38.5z"/>
	<g>
		<path class="st0" d="M51.7,18.5l-2.2,1.4c0.7,2.3,1.1,4.7,1.1,7.2c0,13-10.5,23.5-23.5,23.5c-5.4,0-10.3-1.8-14.3-4.9l-1.9,1.8
			c4.4,3.5,10.1,5.7,16.2,5.7c14.4,0,26.1-11.7,26.1-26.1C53.1,24,52.6,21.1,51.7,18.5z"/>
		<path class="st0" d="M27.1,3.5c2.5,0,5,0.4,7.3,1.2l1.5-2.2c-2.7-1-5.7-1.5-8.7-1.5C12.7,0.9,1,12.6,1,27c0,6,2,11.6,5.5,16
			l1.8-1.8c-3-3.9-4.7-8.8-4.7-14.2C3.6,14,14.1,3.5,27.1,3.5z"/>
	</g>
</g>
</svg>
