<svg xmlns="http://www.w3.org/2000/svg" viewBox="0 0 480 605.9" role="img" aria-label="九州（長崎・佐賀）の地図">
<path d="M286,129 287,126 289,125 291,126 293,127 295,126 296,128 297,124 299,125 297,128 300,127 304,127 306,128 304,129 305,131 303,133 300,133 298,134 301,134 297,135 295,134 296,136 299,135 301,134 303,133 304,135 305,132 306,130 309,127 311,128 313,129 310,130 312,129 314,130 313,132 315,131 314,133 316,134 318,133 320,132 322,128 323,125 325,124 326,122 329,121 331,120 333,121 333,124 332,126 331,128 331,131 329,132 331,133 331,136 330,134 329,136 328,138 330,137 330,140 328,141 326,142 326,146 328,147 330,146 331,148 329,149 328,151 330,149 331,151 329,152 331,153 331,156 333,157 334,162 335,164 336,166 338,167 339,169 340,171 342,173 343,175 344,177 346,178 347,176 349,177 353,178 355,177 355,181 354,183 356,186 356,189 355,191 354,193 355,195 353,196 350,196 348,197 346,196 343,196 340,196 337,195 335,194 333,195 330,195 328,196 326,197 324,199 322,200 320,201 321,203 319,204 317,205 316,207 316,210 315,212 315,215 314,217 311,218 310,221 308,222 309,224 311,225 311,228 312,231 310,233 311,235 309,236 307,237 307,240 309,241 311,242 309,243 311,246 313,247 315,248 314,250 314,254 312,258 310,261 307,261 305,260 302,258 299,258 297,257 295,255 294,253 292,254 289,254 288,252 286,251 285,253 285,256 284,260 282,261 280,260 278,261 276,260 273,260 270,262 271,264 269,265 267,266 266,268 263,269 261,270 262,272 263,275 264,277 262,278 259,278 256,278 252,278 249,278 251,277 249,276 251,274 251,270 250,267 249,265 246,263 248,261 244,259 244,256 242,255 241,251 242,249 240,248 240,245 242,244 244,243 245,241 244,239 247,238 248,236 249,238 251,236 252,234 252,231 253,233 254,235 255,232 257,231 256,229 259,229 260,227 259,225 262,225 263,223 266,222 268,219 267,214 267,210 267,207 264,206 261,206 259,207 257,209 255,210 254,212 252,214 249,214 250,212 248,210 246,209 244,208 241,206 239,205 237,204 235,203 233,202 231,200 229,201 227,202 225,200 223,201 221,200 219,201 217,202 215,201 212,202 210,201 207,201 205,202 202,202 199,202 200,199 201,197 203,196 206,195 208,196 211,195 210,193 213,191 215,190 216,188 214,187 213,189 211,188 209,189 210,187 212,186 210,185 208,186 206,185 205,183 208,183 210,182 213,181 215,179 214,177 216,175 220,174 222,173 221,170 224,171 225,173 224,175 225,177 227,179 231,179 230,181 231,183 233,184 235,183 236,181 238,182 240,181 243,181 245,180 246,182 246,179 248,180 249,177 249,174 251,173 249,172 252,171 252,168 251,166 249,167 247,169 244,170 242,172 239,172 236,170 234,171 233,169 234,166 236,169 237,171 241,170 244,169 247,167 249,165 250,163 251,161 254,160 256,159 257,156 258,152 256,150 254,149 255,147 257,146 259,142 259,139 262,139 264,138 265,136 266,134 268,133 271,133 274,135 279,135 283,133 285,132 283,130 285,129ZM346,249 347,251 349,252 351,253 353,256 354,258 353,260 354,262 355,265 357,267 359,268 360,270 361,272 362,275 363,277 364,279 365,281 367,282 366,284 364,285 365,287 365,290 366,293 366,296 367,298 369,300 371,302 373,303 375,304 376,306 374,307 372,306 369,307 367,308 366,310 364,312 363,314 364,316 363,318 360,323 357,323 355,326 355,329 355,332 352,331 350,332 349,334 347,337 347,340 347,343 346,345 345,347 342,347 340,346 337,347 336,350 334,351 333,353 334,357 332,358 332,361 333,365 333,368 334,371 335,373 337,375 340,375 341,378 341,381 343,385 345,386 346,388 344,391 343,393 342,395 340,396 338,395 338,398 336,400 337,402 340,403 341,405 342,408 344,409 345,412 346,416 344,417 340,416 337,415 334,414 332,413 330,416 329,418 327,419 327,422 325,423 323,422 321,423 319,421 317,420 315,422 313,423 312,425 309,425 306,425 300,426 297,426 295,425 292,425 287,422 285,421 283,420 283,417 280,417 278,414 277,411 274,411 275,413 274,416 272,417 270,416 268,417 267,419 264,420 262,419 260,420 258,422 256,423 253,423 249,422 247,420 246,418 244,416 243,414 244,412 245,410 246,408 247,405 248,403 250,404 253,404 252,402 253,400 252,398 255,397 256,394 257,397 257,394 259,395 260,393 258,391 257,389 259,388 260,385 263,384 261,383 262,380 263,378 267,375 268,373 270,372 272,371 271,367 271,364 268,364 268,361 270,360 269,358 271,359 267,356 269,354 272,351 273,349 276,346 278,345 280,344 279,342 280,340 283,342 283,339 281,338 278,339 276,340 273,340 270,340 267,341 264,342 261,342 258,342 256,343 256,340 257,338 259,337 261,335 264,334 267,333 269,330 270,328 273,327 275,326 277,325 276,323 277,320 276,317 275,315 276,313 276,310 275,308 273,307 273,304 266,303 265,300 266,298 263,297 261,296 258,294 256,293 254,292 253,288 252,281 250,280 252,278 255,278 259,278 262,278 264,277 263,275 262,272 261,270 263,269 265,268 267,267 268,265 271,264 270,262 272,261 274,260 277,261 279,260 282,260 284,261 284,257 285,255 286,252 288,254 291,253 294,253 295,255 297,256 298,258 301,258 304,260 306,261 309,262 311,263 313,264 315,265 316,267 318,268 319,270 322,270 325,271 326,275 329,275 331,273 333,270 332,267 333,265 333,262 331,261 330,259 329,257 328,255 328,252 329,250 331,249 333,250 334,248 336,247 339,247 342,248 346,249ZM242,376 241,374 239,376 237,377 233,376 231,375 229,376 228,379 225,379 226,377 227,375 225,374 223,373 222,371 223,373 221,375 221,378 223,379 224,381 223,383 222,385 221,387 220,389 218,391 216,390 217,388 215,387 214,389 215,391 213,390 212,392 214,393 214,396 212,395 210,396 209,398 208,400 205,400 206,402 205,405 205,402 204,404 205,406 203,407 201,408 199,409 198,407 197,409 196,411 195,409 193,410 193,407 195,406 194,403 191,402 193,401 191,402 189,403 189,400 190,398 192,396 194,394 196,393 197,395 198,397 197,395 198,392 199,394 200,396 202,395 201,393 200,391 198,392 197,390 195,391 193,392 192,389 190,388 190,384 191,381 192,379 193,377 194,375 193,373 195,370 196,368 198,366 199,363 199,360 198,358 195,355 197,354 199,356 200,358 203,357 206,356 208,354 209,352 211,353 213,352 216,352 219,352 220,354 220,357 220,360 221,363 222,365 220,366 221,368 223,367 225,366 227,365 229,364 231,363 233,362 234,360 237,357 240,358 241,356 244,356 245,358 247,359 249,358 250,356 252,357 254,356 256,355 255,358 254,362 253,364 252,366 251,368 250,370 250,373 248,372 249,374 248,377 246,378 243,378 242,380 241,378 242,376ZM406,168 408,166 409,168 410,166 413,166 414,168 416,167 417,169 418,167 419,169 420,171 422,169 423,171 424,173 426,174 427,179 429,180 430,182 432,184 433,187 433,190 431,194 431,197 432,199 432,203 430,205 428,210 427,212 424,212 421,212 423,211 421,210 418,209 417,211 418,213 420,215 419,217 416,217 414,218 413,220 412,222 408,221 405,220 403,219 400,220 399,222 399,225 400,227 400,230 401,234 403,235 406,237 410,238 413,237 415,236 417,235 421,234 422,236 424,233 425,235 424,233 426,235 428,234 429,236 432,237 434,238 436,237 437,239 438,237 437,239 441,239 445,238 447,237 450,238 451,236 453,235 455,236 454,238 452,239 451,241 450,244 449,246 447,248 445,249 444,251 445,253 443,255 441,257 442,259 445,259 447,260 449,259 450,257 451,259 453,258 455,257 457,258 454,260 452,261 451,263 449,264 450,266 452,267 454,266 456,265 456,268 458,267 459,264 460,266 461,268 464,267 467,267 467,264 469,263 468,265 469,267 471,269 469,270 466,271 463,270 460,270 458,271 457,273 456,275 455,277 456,279 454,278 453,280 454,282 456,283 458,284 460,286 463,287 465,285 465,288 467,287 469,285 468,287 469,289 471,288 473,287 475,286 477,287 479,288 480,290 478,289 476,288 475,290 473,289 471,290 469,291 470,294 468,293 467,291 465,292 466,295 468,296 467,300 465,301 464,303 462,302 461,305 463,307 464,305 465,307 466,305 469,305 468,308 466,309 464,311 462,310 461,312 460,314 458,313 457,311 457,314 456,312 455,314 454,312 453,310 452,313 454,315 452,313 451,315 452,317 451,319 453,320 451,321 447,322 447,319 447,315 448,313 449,310 448,307 446,308 444,306 442,307 440,308 439,306 437,305 434,305 432,306 431,309 429,313 428,316 426,315 424,316 420,316 417,316 414,315 411,317 409,319 406,318 404,317 401,316 402,311 400,310 398,308 396,305 393,306 391,307 389,308 387,309 384,310 381,311 379,309 378,307 376,306 375,304 373,303 371,302 370,300 368,299 366,296 366,293 365,290 365,287 364,285 366,284 367,282 365,281 364,279 363,277 361,276 361,272 360,270 359,268 358,266 355,265 354,263 353,260 354,258 353,256 351,254 349,252 347,251 346,249 344,248 340,247 337,247 335,248 333,250 331,249 329,250 328,252 328,255 329,257 330,259 331,261 333,262 334,264 332,267 333,269 332,272 330,274 327,275 325,272 324,270 321,270 319,269 317,268 315,266 313,264 311,263 309,264 309,261 311,259 313,255 313,251 315,250 313,248 311,246 309,245 309,242 311,241 309,240 307,239 306,237 308,236 311,236 310,233 312,231 311,228 311,225 309,223 310,221 312,219 313,217 315,215 315,212 316,210 316,207 317,205 319,204 321,203 320,201 322,200 324,199 326,197 328,196 330,195 333,195 335,194 337,195 340,195 343,196 346,196 348,197 350,196 353,196 355,195 354,193 355,191 356,189 357,187 355,184 355,181 356,178 359,178 360,180 363,180 365,179 366,181 367,183 369,184 372,184 375,184 377,185 380,184 382,185 385,185 389,185 389,182 392,179 394,177 395,179 396,177 397,175 398,173 400,172 399,170 400,168 402,169 403,167 405,168ZM401,315 403,317 405,318 408,319 411,317 412,315 416,315 419,316 423,317 426,316 429,315 431,311 432,308 433,306 435,305 439,306 440,308 442,307 444,306 446,308 448,307 449,310 448,312 447,315 448,318 447,320 449,321 452,320 451,322 449,323 450,325 448,324 447,326 448,328 446,329 445,327 443,328 442,330 440,331 439,334 438,332 437,334 436,336 434,337 437,337 436,339 435,341 434,343 433,345 430,346 426,349 425,353 425,356 425,359 427,358 429,357 428,360 431,361 429,362 428,364 426,365 424,363 421,363 421,366 420,368 419,370 422,368 422,371 424,370 423,368 424,370 422,371 424,373 422,375 420,374 418,378 418,381 416,383 417,385 416,387 414,388 412,392 411,395 410,400 410,403 408,407 407,412 406,414 405,416 405,420 404,422 402,428 401,433 400,436 399,438 398,441 397,445 395,454 394,456 397,455 395,456 394,458 394,461 393,463 393,468 393,471 394,473 396,475 397,477 396,480 395,482 395,485 394,488 394,491 395,493 393,494 394,496 394,499 393,501 392,504 390,505 387,508 388,511 386,510 385,512 384,514 383,516 384,518 383,520 384,522 383,520 382,522 384,523 383,525 382,527 380,528 381,530 382,533 381,536 379,537 378,539 376,540 377,543 379,544 378,546 374,545 374,542 371,541 370,543 367,543 365,542 364,540 363,537 364,535 362,536 361,533 359,532 357,531 355,532 354,530 353,528 354,525 355,523 357,522 358,518 358,515 358,512 358,509 357,507 357,504 355,503 354,501 352,502 348,503 346,501 344,500 342,498 339,500 338,502 337,499 336,497 334,496 334,493 333,490 333,485 332,483 329,483 328,481 329,479 327,477 322,477 320,475 318,474 315,473 314,470 313,467 315,466 316,462 318,461 316,458 315,456 313,454 311,453 309,452 305,451 303,450 302,446 300,443 300,439 298,438 297,436 295,435 290,432 290,429 292,428 292,425 294,424 295,426 297,425 300,425 305,426 308,425 311,426 313,423 315,422 317,420 319,421 321,422 324,423 327,422 327,419 329,418 330,416 331,414 334,414 336,415 338,416 343,417 345,416 345,413 345,410 343,408 341,406 340,403 338,402 336,401 337,399 338,397 339,395 341,396 342,394 344,391 345,389 345,386 343,385 341,383 341,379 340,377 339,375 336,374 334,371 333,368 333,365 332,363 332,360 333,358 334,354 333,352 335,351 336,348 338,346 341,346 343,347 345,346 347,344 347,340 346,338 348,335 350,333 351,331 353,332 355,331 355,328 356,326 357,323 360,323 363,320 364,318 363,315 364,313 365,311 366,309 367,307 370,306 374,307 376,306 378,307 379,309 380,311 382,310 385,309 388,309 390,308 392,306 395,306 398,308 400,309 402,311 401,314ZM215,427 214,425 212,424 210,423 208,421 209,419 209,416 208,414 206,413 207,411 209,410 207,408 209,407 212,407 214,409 213,407 214,405 215,407 216,405 218,406 219,408 220,410 218,413 219,415 221,414 222,416 220,418 218,419 217,421 216,424 216,427ZM274,411 277,411 278,413 279,416 281,417 283,419 285,421 287,422 290,425 292,426 291,429 290,432 294,434 296,435 297,437 299,439 300,441 301,445 303,448 304,450 309,451 311,452 313,454 314,456 316,458 317,460 316,462 315,464 315,467 314,469 314,472 315,474 318,474 320,475 321,477 326,477 328,478 329,480 328,482 330,483 333,483 333,488 334,491 334,494 335,497 337,499 338,501 340,498 343,499 345,500 347,502 350,502 352,501 354,502 357,503 356,506 358,508 359,511 358,513 358,516 358,521 355,523 354,525 353,528 351,529 348,528 346,527 345,529 343,530 341,531 339,532 336,536 333,541 333,545 337,548 339,549 341,550 344,551 345,553 344,555 342,557 341,559 343,560 347,559 346,561 345,563 343,564 341,566 340,568 337,568 334,568 332,570 331,573 330,575 329,577 327,578 328,580 325,583 323,584 321,585 319,586 317,587 313,590 310,590 307,590 305,591 303,592 301,593 299,594 298,596 296,595 295,597 292,598 292,601 290,600 288,601 287,604 285,605 283,604 284,602 286,600 286,597 286,594 284,593 285,591 287,590 289,589 291,586 294,586 295,584 296,582 298,577 298,574 297,572 298,570 299,568 301,565 302,561 302,557 302,554 303,552 302,549 301,546 300,544 299,542 298,539 297,536 296,534 294,533 293,531 290,530 289,526 289,523 289,519 290,517 289,514 287,515 284,515 282,516 280,515 278,514 277,512 275,511 274,509 276,508 277,506 279,504 283,503 286,503 289,503 290,505 292,507 291,510 291,513 293,514 296,514 298,513 300,512 301,509 302,505 303,502 305,500 306,498 305,495 304,493 302,490 299,490 296,489 294,490 293,488 292,486 290,487 288,486 285,486 282,488 280,489 278,491 277,494 278,497 276,499 276,502 274,503 272,504 272,507 270,508 271,510 270,514 269,516 267,518 266,520 265,522 266,526 264,525 264,528 266,530 264,529 264,532 265,534 265,537 266,539 267,541 269,540 270,542 268,543 270,550 272,554 274,556 276,557 278,559 280,561 284,561 283,564 282,566 283,569 281,570 279,572 281,571 281,574 279,575 276,575 274,577 275,579 272,577 270,576 268,577 266,578 264,577 263,574 263,570 261,568 259,566 257,564 254,564 252,565 250,564 247,564 244,564 241,564 239,563 236,563 235,561 233,563 234,561 232,562 231,565 229,563 227,564 225,563 223,564 223,561 225,559 223,558 221,559 220,557 222,556 224,555 223,553 221,554 219,553 217,552 219,551 221,550 222,548 220,547 219,545 216,544 214,542 213,540 211,538 209,537 211,538 212,536 214,535 215,533 216,535 217,537 219,538 219,535 219,538 221,539 224,539 227,537 229,536 232,533 236,525 237,523 239,514 239,509 239,504 238,502 236,498 234,497 232,492 231,490 228,489 229,487 227,486 225,485 223,483 221,482 219,483 218,479 217,477 216,475 217,473 219,470 218,468 220,467 219,465 221,463 222,461 223,459 224,456 223,453 223,450 222,447 220,445 219,443 217,441 218,439 220,438 221,436 221,433 221,430 219,429 216,428 217,425 219,423 221,422 224,421 227,421 229,422 231,421 230,423 232,424 235,424 238,422 240,421 241,419 243,417 242,415 244,416 246,417 247,420 248,422 251,423 254,423 257,422 259,419 261,420 263,419 266,419 268,418 270,416 272,417 274,416 275,413 274,411ZM175,474 175,471 174,469 172,470 172,467 174,466 172,465 171,463 170,466 169,468 168,466 169,464 170,461 174,462 176,465 178,466 181,467 180,465 181,463 183,464 182,467 183,470 182,472 180,471 178,472 176,473ZM154,504 153,502 151,501 152,503 150,504 149,502 147,501 146,499 147,497 149,496 150,493 150,490 152,489 153,487 155,486 157,485 160,485 162,484 163,482 164,480 163,478 164,476 166,477 164,478 165,480 164,482 162,484 162,487 161,489 159,488 157,490 158,493 156,495 155,497 157,498 155,499 154,501 154,504Z" fill="#e7e4e1"/>
<path d="M198,202 201,202 204,202 207,202 209,201 212,202 214,201 216,202 219,202 220,200 223,200 226,201 228,202 230,200 232,201 234,203 236,204 239,205 241,206 242,208 244,207 245,209 248,209 249,211 249,214 251,213 253,212 254,210 256,209 258,207 261,207 263,206 266,206 267,209 267,214 268,219 267,221 265,223 263,222 262,225 260,224 260,227 259,229 256,229 257,231 255,232 255,235 253,234 253,231 252,234 250,235 249,238 248,236 246,237 245,239 245,243 243,244 240,245 240,248 242,249 241,251 242,255 237,255 233,255 232,253 231,251 229,250 228,248 227,245 225,247 223,246 225,248 224,251 220,254 216,257 214,260 211,259 210,261 208,262 211,262 213,264 213,267 215,269 216,271 217,274 218,276 219,278 220,280 222,281 223,283 222,285 219,285 216,285 213,283 211,284 209,283 205,283 204,281 201,281 199,279 198,277 196,275 193,274 192,272 191,270 189,269 186,268 185,266 184,264 183,261 186,261 187,258 185,253 183,252 180,253 177,252 175,251 173,250 169,249 168,246 166,244 167,242 167,239 165,237 162,234 161,232 160,229 161,227 162,224 164,223 166,224 167,226 168,228 170,230 171,232 173,231 171,229 169,228 171,227 172,225 170,224 172,223 172,220 174,218 175,216 174,214 175,212 173,213 171,212 169,211 168,209 166,208 165,206 163,205 165,203 166,205 165,203 166,201 168,200 169,202 171,203 170,205 172,206 173,204 172,201 170,202 171,200 170,198 169,196 170,194 172,195 171,193 173,194 172,191 172,188 174,189 175,191 176,193 177,191 178,189 180,190 183,189 186,192 187,194 189,195 187,196 185,198 184,200 186,201 188,200 188,203 190,204 193,206 196,206 199,204 198,202ZM108,46 107,44 106,46 107,48 106,50 104,51 107,51 109,50 110,48 109,51 107,52 108,55 109,57 107,59 109,60 106,60 107,62 107,65 106,63 105,65 104,67 103,65 101,66 102,64 104,63 103,61 105,60 103,59 102,57 104,56 103,54 102,56 102,53 101,55 100,57 99,59 97,60 98,57 97,55 98,53 96,54 95,52 96,54 95,56 96,58 95,60 94,58 92,57 90,58 87,57 88,55 89,57 91,56 93,54 92,52 93,50 93,47 94,45 93,43 95,44 96,42 98,41 95,42 93,41 93,38 95,36 96,34 97,32 98,30 99,28 101,29 103,28 100,28 100,25 98,24 95,25 95,22 96,20 97,18 98,15 99,12 99,9 101,11 104,9 105,11 107,10 109,11 108,9 110,8 111,6 113,5 115,6 114,4 112,3 113,1 115,2 117,0 118,2 120,3 121,5 123,4 122,6 121,8 119,9 121,10 122,12 120,13 121,15 118,15 117,13 118,15 116,14 115,16 117,15 118,17 120,16 121,18 120,20 121,22 120,24 118,25 119,27 118,29 116,31 115,33 113,34 111,35 110,37 109,39 108,41 106,42 107,44 108,46ZM85,102 85,99 84,97 82,98 81,96 79,98 79,94 79,91 79,88 80,85 80,81 80,78 82,77 81,75 82,73 83,71 82,69 82,66 83,64 83,61 85,62 87,63 86,65 87,67 89,66 91,65 90,67 92,66 94,65 95,67 94,69 95,67 94,65 93,63 95,64 96,66 98,65 97,67 96,69 98,68 99,70 98,68 100,67 102,68 104,70 101,71 100,73 99,75 100,77 99,79 97,80 96,82 94,85 96,86 96,89 94,90 93,92 94,94 92,95 91,97 89,98 87,97 87,100 85,101ZM154,164 152,163 150,162 151,160 149,159 150,157 148,156 146,157 144,156 145,154 144,152 146,153 148,154 150,155 149,153 146,152 145,149 147,148 145,147 147,146 148,148 150,147 149,145 148,143 149,141 150,139 152,138 154,139 156,140 159,140 162,141 161,143 160,145 158,147 160,148 162,149 164,150 161,150 160,152 162,153 164,154 164,157 162,158 160,157 158,158 156,159 155,161 154,163ZM107,251 103,249 105,247 104,245 106,247 108,248 110,249 111,247 109,246 108,244 108,241 110,240 113,241 115,240 114,238 111,237 111,234 113,233 114,231 117,231 116,229 115,227 116,225 116,222 120,221 124,221 125,219 126,216 127,218 126,220 128,219 127,217 130,218 131,216 129,215 127,213 130,212 132,213 132,216 131,218 133,219 132,221 130,222 130,225 127,225 128,227 127,229 125,230 124,232 122,231 123,233 125,234 124,236 122,238 121,240 120,242 119,244 117,245 115,247 113,248 111,249 107,251ZM142,219 144,218 146,217 147,215 148,213 149,215 148,218 149,221 151,220 152,222 154,221 156,220 158,219 160,221 162,220 163,218 164,220 164,223 162,224 161,227 160,229 161,232 162,234 165,237 167,239 167,242 166,244 167,246 168,248 171,250 173,251 175,252 178,253 181,252 184,252 186,257 187,260 184,260 183,263 184,266 186,267 188,268 190,269 192,271 193,273 194,275 197,276 199,278 200,280 203,281 205,282 207,283 210,283 212,284 214,285 217,285 221,285 221,288 220,290 219,292 216,293 214,294 212,296 209,298 207,299 205,300 208,299 212,302 210,304 213,303 215,305 217,304 219,305 220,303 222,302 225,300 227,299 229,300 232,298 235,299 237,300 239,301 240,303 241,305 242,309 244,312 245,314 244,316 244,319 245,321 243,323 242,325 240,326 242,328 242,331 240,332 238,333 236,335 233,335 229,335 228,337 227,340 225,341 223,343 221,342 218,342 220,343 218,345 216,344 216,341 215,339 213,338 211,337 211,332 210,330 212,331 214,330 216,329 218,326 220,325 221,323 222,321 221,319 219,318 219,315 218,312 214,312 212,313 207,312 204,313 201,314 199,316 197,317 195,318 193,317 192,319 190,317 187,317 186,319 187,321 185,322 184,325 182,326 181,328 180,331 179,333 177,335 175,336 173,337 170,337 171,340 169,342 167,344 165,346 163,347 160,347 158,348 158,345 159,347 160,345 162,344 163,342 164,340 165,338 166,336 168,335 168,332 167,330 165,329 167,328 168,326 169,328 170,330 171,328 172,324 175,321 173,322 172,324 170,323 169,325 169,322 168,320 167,318 165,317 166,315 164,314 163,312 161,311 162,309 160,308 158,307 157,309 155,308 154,306 152,305 150,303 149,300 148,297 147,294 146,292 145,290 143,292 142,290 143,288 141,286 143,287 142,285 142,282 144,280 145,278 145,274 146,272 147,270 148,268 146,267 148,266 149,264 152,264 154,265 155,267 157,268 156,270 158,269 160,270 159,272 157,274 156,276 157,278 158,281 159,279 160,276 163,277 166,277 167,279 168,281 169,283 167,284 168,286 168,289 167,292 165,291 166,289 165,287 163,289 164,291 163,293 164,295 165,293 166,295 167,297 165,298 164,300 166,301 168,302 170,303 171,305 173,304 172,302 174,304 175,302 176,300 177,298 178,300 179,298 180,300 182,301 184,302 186,301 187,303 189,304 191,305 194,305 193,303 191,301 189,300 188,297 186,296 187,294 185,293 184,291 183,289 183,286 184,283 185,281 186,279 185,277 184,275 182,273 180,272 179,270 177,269 175,268 172,269 171,271 169,273 168,271 169,269 167,268 165,267 164,265 162,266 160,265 161,263 160,265 161,267 163,269 160,269 158,268 158,265 156,264 157,262 159,261 158,259 160,260 161,258 160,256 162,255 160,256 158,255 157,257 155,258 154,256 155,254 155,251 153,252 153,255 153,258 152,260 149,260 147,262 146,260 146,257 148,258 150,257 151,255 149,254 148,252 146,251 143,251 144,249 146,248 144,247 145,245 143,243 143,246 142,248 140,246 141,243 140,245 138,244 139,242 138,244 136,243 133,243 132,241 134,240 132,239 133,237 134,235 135,233 136,231 138,229 140,228 137,229 135,228 133,226 135,224 134,222 135,219 134,217 137,216 138,218 140,217 141,219ZM63,308 61,307 62,305 61,303 62,301 61,299 62,297 61,295 63,294 64,296 65,294 63,293 62,291 60,292 59,290 60,288 58,290 58,287 56,288 54,287 56,286 55,284 57,283 59,284 61,282 62,284 63,282 61,280 61,277 61,274 63,272 65,275 67,274 66,272 66,269 67,266 70,264 69,262 70,260 68,259 69,257 70,254 71,252 71,255 70,257 71,260 72,263 71,265 70,268 69,270 68,272 69,274 68,276 68,280 69,282 71,281 73,280 74,278 76,279 77,277 79,278 80,280 80,283 78,284 76,286 75,288 73,289 71,287 69,286 70,289 69,291 67,292 68,294 67,296 68,298 69,300 68,302 66,301 64,302 63,304 65,305 64,307ZM37,317 35,316 34,314 33,312 33,309 33,306 36,305 37,307 36,309 37,311 38,309 37,307 36,304 38,305 39,307 42,308 42,311 41,314 39,316 37,317ZM24,348 21,347 20,344 18,343 14,343 11,343 8,343 7,345 5,344 3,343 1,342 1,339 2,337 3,339 2,341 3,339 4,341 6,342 8,340 9,338 7,340 5,339 6,337 8,336 7,334 9,335 10,333 8,331 7,329 8,327 7,325 7,322 7,319 6,317 7,315 9,314 11,315 13,316 14,319 13,321 15,320 17,319 19,318 17,320 20,319 19,321 20,319 21,317 23,318 23,321 25,322 24,320 27,318 25,317 23,318 24,316 26,315 27,313 29,312 29,315 31,317 29,318 31,319 33,318 31,320 34,320 33,323 34,325 34,328 36,330 38,331 39,334 41,335 40,337 38,338 36,337 33,338 30,338 29,336 26,336 24,337 23,339 22,341 24,340 25,342 27,344 26,346 24,347Z" fill="url(#kygrad)"/>
<defs><linearGradient id="kygrad" x1="0" y1="0" x2="1" y2="1"><stop offset="0" stop-color="#de5f5c"/><stop offset="1" stop-color="#d99354"/></linearGradient></defs>
</svg>