<?xml version="1.0" encoding="UTF-8"?>
<svg id="_レイヤー_2" xmlns="http://www.w3.org/2000/svg" xmlns:xlink="http://www.w3.org/1999/xlink" version="1.1" viewBox="0 0 509.8 172.4">
  <!-- Generator: Adobe Illustrator 30.3.0, SVG Export Plug-In . SVG Version: 2.1.3 Build 182)  -->
  <defs>
    <style>
      .st0 {
        fill: url(#_名称未設定グラデーション_9);
      }

      .st1 {
        fill: url(#_名称未設定グラデーション_6);
      }

      .st2 {
        fill: url(#_名称未設定グラデーション_5);
      }

      .st3 {
        fill: url(#_名称未設定グラデーション_4);
      }

      .st4 {
        fill: url(#_名称未設定グラデーション_3);
      }

      .st5 {
        fill: url(#_名称未設定グラデーション_2);
      }

      .st6 {
        fill: url(#_名称未設定グラデーション_8);
      }

      .st7 {
        fill: url(#_名称未設定グラデーション_7);
      }

      .st8 {
        fill: #fff;
      }

      .st9 {
        fill: #4f3c19;
      }

      .st10 {
        fill: url(#_名称未設定グラデーション);
      }

      .st11 {
        fill: url(#_名称未設定グラデーション_10);
      }
    </style>
    <linearGradient id="_名称未設定グラデーション" data-name="名称未設定グラデーション" x1="180.6" y1="353.5" x2="264.3" y2="353.5" gradientTransform="translate(0 -326.7)" gradientUnits="userSpaceOnUse">
      <stop offset="0" stop-color="#e85f4c"/>
      <stop offset="1" stop-color="#ef5457"/>
    </linearGradient>
    <linearGradient id="_名称未設定グラデーション_2" data-name="名称未設定グラデーション 2" x1="22.9" y1="14.7" x2="598.7" y2="14.7" gradientTransform="translate(0 129.3) scale(1 -1)" gradientUnits="userSpaceOnUse">
      <stop offset="0" stop-color="#e48e46"/>
      <stop offset="1" stop-color="#ef5457"/>
    </linearGradient>
    <linearGradient id="_名称未設定グラデーション_3" data-name="名称未設定グラデーション 3" x1="22.9" y1="14.7" x2="598.7" y2="14.7" gradientTransform="translate(0 129.3) scale(1 -1)" gradientUnits="userSpaceOnUse">
      <stop offset="0" stop-color="#e48e46"/>
      <stop offset="1" stop-color="#ef5457"/>
    </linearGradient>
    <linearGradient id="_名称未設定グラデーション_4" data-name="名称未設定グラデーション 4" x1="22.9" y1="14.7" x2="598.7" y2="14.7" gradientTransform="translate(0 129.3) scale(1 -1)" gradientUnits="userSpaceOnUse">
      <stop offset="0" stop-color="#e48e46"/>
      <stop offset="1" stop-color="#ef5457"/>
    </linearGradient>
    <linearGradient id="_名称未設定グラデーション_5" data-name="名称未設定グラデーション 5" x1="22.9" y1="14.7" x2="598.7" y2="14.7" gradientTransform="translate(0 129.3) scale(1 -1)" gradientUnits="userSpaceOnUse">
      <stop offset="0" stop-color="#e48e46"/>
      <stop offset="1" stop-color="#ef5457"/>
    </linearGradient>
    <linearGradient id="_名称未設定グラデーション_6" data-name="名称未設定グラデーション 6" x1="22.9" y1="14.1" x2="598.7" y2="14.1" gradientTransform="translate(0 129.3) scale(1 -1)" gradientUnits="userSpaceOnUse">
      <stop offset="0" stop-color="#e48e46"/>
      <stop offset="1" stop-color="#ef5457"/>
    </linearGradient>
    <linearGradient id="_名称未設定グラデーション_7" data-name="名称未設定グラデーション 7" x1="22.9" y1="14.7" x2="598.7" y2="14.7" gradientTransform="translate(0 129.3) scale(1 -1)" gradientUnits="userSpaceOnUse">
      <stop offset="0" stop-color="#e48e46"/>
      <stop offset="1" stop-color="#ef5457"/>
    </linearGradient>
    <linearGradient id="_名称未設定グラデーション_8" data-name="名称未設定グラデーション 8" x1="22.9" y1="14.1" x2="598.7" y2="14.1" gradientTransform="translate(0 129.3) scale(1 -1)" gradientUnits="userSpaceOnUse">
      <stop offset="0" stop-color="#e48e46"/>
      <stop offset="1" stop-color="#ef5457"/>
    </linearGradient>
    <linearGradient id="_名称未設定グラデーション_9" data-name="名称未設定グラデーション 9" x1="22.9" y1="14.7" x2="598.7" y2="14.7" gradientTransform="translate(0 129.3) scale(1 -1)" gradientUnits="userSpaceOnUse">
      <stop offset="0" stop-color="#e48e46"/>
      <stop offset="1" stop-color="#ef5457"/>
    </linearGradient>
    <linearGradient id="_名称未設定グラデーション_10" data-name="名称未設定グラデーション 10" x1="22.9" y1="14.7" x2="598.7" y2="14.7" gradientTransform="translate(0 129.3) scale(1 -1)" gradientUnits="userSpaceOnUse">
      <stop offset="0" stop-color="#e48e46"/>
      <stop offset="1" stop-color="#ef5457"/>
    </linearGradient>
  </defs>
  <g id="_レイヤー_1-2">
    <g>
      <g>
        <path class="st9" d="M55.5,36.7c-1.5,1.1-3.3,2.2-4.9,3,1.7,1.2,3.8,2,6.2,2.5-.5.5-1.1,1.4-1.4,2-5.3-1.2-8.7-4.1-10.7-8.7h-3.1v5.7l5.7-.9v1.9c-3.6.6-7.6,1.3-10.4,1.7l-.5-2c.8-.1,1.9-.3,3-.4v-6h-4v-2h4.1v-10.3h14.6v1.9h-12.4v1.6h11.7v1.8h-11.7v1.6h11.7v1.8h-11.7v1.7h14.8v2h-2.7l1.8,1.2h0s0,0,0,0ZM47,35.5c.6,1.1,1.3,2.1,2.2,3,1.6-.9,3.3-2,4.5-3h-6.7Z"/>
        <path class="st9" d="M66.4,26.4h1.5v14.3h-1.5v-1.5h-4.3v2.2h-1.6v-15h1.6v11h1.2v-14.5h1.8v14.5h1.3v-11h0ZM81.6,32.7h-1.6v9c0,1.1-.2,1.7-1.1,2-.8.3-2,.4-3.8.4-.1-.6-.4-1.4-.8-2,1.4,0,2.7,0,3.1,0,.4,0,.5,0,.5-.5v-8.9h-9.8v-1.9h1.3c-.2-.5-.7-1.2-1.1-1.6,3-.6,4.4-1.5,5-3.2h-4.6v-1.8h5c0-.6.1-1.2.1-1.9h2c0,.7,0,1.3-.1,1.9h5v1.8h-5.3c0,.2,0,.4-.1.5,1.9.9,4.2,2.1,5.5,2.9l-1.3,1.4h1.9v1.9h0s0,0,0,0ZM79.5,30.9c-1.1-.7-3.1-1.8-4.8-2.7-.9,1.3-2.5,2.1-5,2.7h9.8ZM71.5,39.9v1.3h-1.8v-6.9h6.4v5.6h-4.7,0ZM71.5,35.9v2.5h2.9v-2.5s-2.9,0-2.9,0Z"/>
        <path class="st9" d="M92.4,33.2c0,1.5-1.2,2.7-2.7,2.7s-2.7-1.2-2.7-2.7,1.2-2.7,2.7-2.7,2.7,1.2,2.7,2.7Z"/>
        <path class="st9" d="M110.4,29.1c-.3,1.4-.7,2.8-1.1,4h9.8v2h-4.5v6.1h5v2.1h-12.7v-2.1h5.6v-6.1h-3.6v-.7c-1.1,2.9-2.5,5.3-4.2,7.3-.3-.4-1.1-1.1-1.6-1.6v3.8h-2.1v-13.1c-.8,1-1.5,1.9-2.3,2.7-.2-.5-.8-1.7-1.2-2.2,2.3-2.2,4.5-5.6,5.9-9.1l2.1.7c-.6,1.6-1.4,3.2-2.3,4.7v12.2c2.5-2.6,4.1-6.4,5.2-10.9h-4v-2.1h4.4c.3-1.4.5-2.9.7-4.5l2.2.3c-.2,1.4-.4,2.9-.7,4.2h8.8v2.1h-9.2,0s0,0,0,0Z"/>
        <path class="st9" d="M128.7,25.7c-.6,2.5-1.9,4.3-5,5.5-.2-.5-.8-1.2-1.2-1.6,2.4-.9,3.5-2.1,4-3.9h-3.3v-1.8h3.7c0-.5,0-1,.1-1.5h2.1c0,.5,0,1-.1,1.5h4.8s0,.5,0,.8c-.1,2.8-.3,4-.8,4.5-.4.4-.8.6-1.4.6-.6,0-1.6,0-2.6,0,0-.5-.2-1.3-.5-1.8,1,.1,1.9.1,2.2.1.3,0,.5,0,.7-.2.2-.2.3-.9.4-2.3h-3s0,0,0,0ZM131.8,41.2c-1.9,1.2-4.9,2.3-7.2,2.9-.4-.4-1.2-1.3-1.7-1.6,2.4-.5,5.3-1.3,6.9-2.2l2,.9h0ZM126,30.7h15.4v9.5h-15.4s0-9.5,0-9.5ZM128.1,33.4h11.1v-1.3h-11.1v1.3ZM128.1,36.1h11.1v-1.3h-11.1v1.3ZM128.1,38.8h11.1v-1.4h-11.1v1.4ZM143.2,29.7h-8.2v-6.2h8.2v6.2ZM136.9,40.3c2.6.8,5.4,1.9,7.1,2.6l-2.4,1.1c-1.4-.8-4-1.8-6.5-2.6l1.7-1.1h0ZM141,25.2h-4v2.8h4v-2.8Z"/>
        <path class="st9" d="M158.9,43.1l-1.4-2.2c.8,0,1.5-.2,2.1-.3,3-.7,5.7-2.9,5.7-6.7s-2.1-6.2-5.7-6.6c-.3,2.1-.7,4.4-1.4,6.6-1.4,4.8-3.4,7.5-5.7,7.5s-4.5-2.6-4.5-6.5,4.6-9.9,10.6-9.9,9.3,4,9.3,8.9-3.2,8.4-8.9,9.2h0s0,0,0,0ZM152.6,38.6c1.1,0,2.2-1.5,3.3-5.2.6-1.9,1-4,1.3-6.1-4.3.7-6.8,4.4-6.8,7.3s1.2,4,2.2,4h0Z"/>
        <path class="st9" d="M282.4,43.1l-1.4-2.2c.8,0,1.5-.2,2.1-.3,3-.7,5.7-2.9,5.7-6.7s-2.1-6.2-5.7-6.6c-.3,2.1-.7,4.4-1.4,6.6-1.4,4.8-3.4,7.5-5.7,7.5s-4.5-2.6-4.5-6.5,4.6-9.9,10.6-9.9,9.3,4,9.3,8.9-3.2,8.4-8.9,9.2h0s0,0,0,0ZM276,38.6c1.1,0,2.2-1.5,3.3-5.2.6-1.9,1-4,1.3-6.1-4.3.7-6.8,4.4-6.8,7.3s1.2,4,2.2,4h0Z"/>
        <path class="st9" d="M303.7,25.5c0,.4-.2.9-.3,1.4,1.4-.2,2.9-.5,4.3-.8v2.4c-1.5.4-3.2.6-4.8.8-.2,1-.5,2.1-.8,3.1-.9,3.3-2.5,8.2-3.8,10.9l-2.6-.9c1.4-2.4,3.1-7.3,4-10.6.2-.7.4-1.5.6-2.3-.7,0-1.3,0-1.9,0-1.1,0-2,0-2.8-.1v-2.3c1.1.1,1.9.2,2.8.2s1.5,0,2.4-.1c.1-.7.2-1.3.3-1.8.1-.7.1-1.6.1-2.1l2.8.2c-.1.6-.4,1.6-.5,2h0s0,0,0,0ZM306.6,38.6c0,1.1.6,2,3.7,2s3.2-.2,4.7-.5v2.4c-1.4.2-3,.3-4.8.3-3.9,0-5.9-1.3-5.9-3.6s.2-2,.4-3l2.2.2c-.2.7-.3,1.5-.3,2.1h0ZM310.5,30.4c1.4,0,2.8,0,4.1.2v2.3c-1.3-.2-2.7-.3-4.1-.3s-3,.1-4.5.3v-2.2c1.3-.1,2.9-.2,4.4-.2h0s0,0,0,0Z"/>
        <path class="st9" d="M333.7,25.9c-.1.4-.2.9-.3,1.3,3.8.7,6.3,3.7,6.3,7.8s-3.5,7.7-8.5,8.5l-1.4-2.1c5.1-.5,7.5-3.1,7.5-6.4s-1.7-5-4.5-5.6c-.9,2.9-2,5.8-3.3,7.8.4.6.9,1.1,1.4,1.6l-1.9,1.5c-.4-.4-.7-.8-1-1.2-1.5,1.8-2.9,2.8-4.7,2.8s-3.5-1.6-3.5-4.5,1.4-5.6,3.6-7.4c-.2-.7-.5-1.4-.7-2-.2-.8-.5-1.6-.9-2.3l2.5-.8c.1.7.3,1.5.5,2.1.1.5.3,1.1.5,1.7,1.9-1.1,3.8-1.5,5.8-1.6.1-.5.2-1,.3-1.4.1-.6.2-1.5.2-2l2.6.2c-.2.6-.4,1.6-.5,2.1h0s0,0,0,0ZM323.6,39.3c1,0,2.1-1,3.1-2.2,0-.1-.2-.3-.3-.4-.7-1.1-1.5-2.8-2.2-4.6-1.3,1.4-2.2,3.4-2.2,5.1s.6,2.2,1.6,2.2h0ZM328.1,35c1-1.6,1.9-3.8,2.5-5.9-1.7.1-3.2.7-4.5,1.5.6,1.6,1.3,3.2,1.8,4.1l.2.4h0Z"/>
        <path class="st9" d="M348.4,26.1c-.4,1.9-1.2,6.4-1.2,8.9s0,1.7.1,2.5c.4-1,.9-2.1,1.3-3l1.2,1c-.6,1.8-1.4,4.3-1.7,5.5,0,.3-.1.8-.1,1.1,0,.2,0,.6,0,.9h-2.1c-.5-1.5-.9-4.3-.9-7.5s.8-7.6,1-9.5c.1-.6.2-1.3.2-2l2.6.2c-.2.4-.4,1.4-.5,1.8h0s0,0,0,0ZM354.1,37.9c0,1.1.8,1.9,3.7,1.9s3.9-.2,5.9-.6v2.5c-1.5.3-3.4.5-5.9.5-4,0-5.9-1.4-5.9-3.7s.1-1.8.4-2.9l2.1.2c-.2.8-.3,1.5-.3,2.1h0ZM363,26v2.4c-2.7.3-7.2.3-9.9,0v-2.4c2.7.4,7.5.3,9.9,0Z"/>
        <path class="st9" d="M369.7,26.2c1.7-.2,5.9-.6,10.3-1,2.5-.2,4.9-.4,6.5-.4v2.4c-1.3,0-3.4,0-4.6.3-3.2,1-5.2,4.3-5.2,7.1,0,4.3,4,5.7,7.9,5.9l-.9,2.5c-4.6-.2-9.5-2.7-9.5-7.9s2.1-6.4,4-7.7c-2.4.2-7.9.8-10.6,1.4l-.2-2.6c.9,0,1.7,0,2.2-.1h0,0ZM385.1,33.2l-1.5.7c-.6-1.2-1.2-2.3-1.9-3.3l1.4-.6c.6.8,1.4,2.3,1.9,3.3h0ZM387.8,32.1l-1.4.7c-.6-1.2-1.2-2.2-2-3.3l1.4-.6c.6.8,1.5,2.2,2,3.2h0Z"/>
        <path class="st9" d="M399.4,23.4l2.5-.3c.1.9.3,1.8.5,2.7,1.7-.2,3.3-.6,4.8-1.1l.3,2.1c-1.3.4-2.9.7-4.5.9.2.5.3,1,.5,1.4.1.4.3.8.5,1.3,1.9-.2,3.5-.6,4.6-1l.4,2.2c-1.1.3-2.5.6-4.1.8.5.9,1,1.8,1.5,2.6.3.4.6.8,1,1.1l-1.2,1.8c-1.3-.3-3.7-.6-5.4-.7l.2-1.8c1.1.1,2.6.3,3.3.3-.6-1-1.2-2-1.6-3-2.9.2-6.8.2-10.4,0v-2.2c3.4.4,6.8.4,9.5.1-.1-.4-.3-.7-.4-1-.2-.6-.4-1.2-.5-1.7-2.3.1-5.1.1-8.1-.2v-2.1c2.7.3,5.2.4,7.5.3,0,0,0-.1,0-.2-.2-.8-.5-1.6-.7-2.4h0s0,0,0,0ZM395.1,38.5c0,1.9,1.7,2.7,5.1,2.7s4.1-.2,5.8-.5v2.4c-1.8.3-3.8.4-5.7.4-4.7,0-7.4-1.4-7.5-4.6,0-1.4.5-2.5,1-3.5l2.3.5c-.6.8-1,1.6-1,2.6h0Z"/>
        <path class="st9" d="M417.3,24.6c1.2,0,6.6-.1,7.9-.3.8,0,1.3-.1,1.5-.2l1.3,1.7c-.5.3-1,.6-1.5,1-1.2.9-4.1,3.4-5.8,4.7,1-.3,1.9-.4,2.8-.4,4,0,6.9,2.5,6.9,5.7s-3,6.5-8.3,6.5-5.5-1.4-5.5-3.6,1.6-3.3,3.9-3.3,4.6,1.9,4.9,4.1c1.6-.7,2.5-2,2.5-3.7s-2.2-3.8-5.1-3.8-6,1.8-8.8,4.8l-1.7-1.8c1.9-1.5,4.8-4,6.2-5.1,1.3-1.1,4.1-3.4,5.2-4.4-1.3,0-5.4.2-6.6.3-.6,0-1.2,0-1.8.1v-2.5c.5,0,1.2.1,1.8.1h0s0,0,0,0ZM421.7,41.3c.6,0,1.2,0,1.7,0-.2-1.7-1.2-2.9-2.8-2.9s-1.7.6-1.7,1.3c0,1,1.2,1.7,2.8,1.7,0,0,0,0,0,0Z"/>
        <path class="st9" d="M438.1,37.6c0,1.7,1.7,2.9,5.3,2.9s6.3-.4,8.2-1v2.6c-1.8.5-4.8.8-8.1.8-5.1,0-7.8-1.7-7.8-4.8s.3-2.4.5-3.3l2.5.2c-.3.9-.5,1.7-.5,2.6h0ZM443.5,25.6c2.3,0,4.9-.2,6.6-.3v2.5c-1.6.1-4.4.3-6.6.3s-4.5-.1-6.4-.3v-2.5c1.7.2,3.9.3,6.3.3h0Z"/>
        <path class="st9" d="M465,30.4c2.1-1.3,4.4-2.4,5.7-3.1.8-.5,1.3-.8,1.9-1.3l1.3,2.1c-.6.4-1.3.7-2,1.1-1.6.8-4.7,2.3-7,3.8-2.1,1.4-3.4,2.9-3.4,4.6s1.8,2.9,5.3,2.9,5.7-.4,7.6-.8v2.7c-1.9.3-4.5.6-7.6.6-4.6,0-7.9-1.3-7.9-5.1s1.6-4.4,4-6.2c-1.1-2-2.3-4.7-3.4-7.2l2.4-1c1,2.6,2.1,5,3.1,6.8h0Z"/>
      </g>
      <path class="st10" d="M242.3,4.7c-8.7,0-16.2,5.1-19.8,12.4-3.6-7.3-11.1-12.4-19.8-12.4s-22.1,9.9-22.1,22.1,9.9,22.1,22.1,22.1,16.2-5.1,19.8-12.4c3.6,7.3,11.1,12.4,19.8,12.4s22.1-9.9,22.1-22.1-9.9-22.1-22.1-22.1Z"/>
      <g>
        <path class="st8" d="M205.6,26.7c2.6,3.6,6.9,7,10.9,8.7-.6.6-1.5,1.7-2,2.4-3.7-1.9-7.5-5.2-10.3-8.9v10.3h-2.9v-10.2c-2.8,3.6-6.6,6.8-10.3,8.7-.5-.7-1.4-1.7-2-2.4,4-1.8,8.3-5.1,10.9-8.7h-10v-2.7h11.4v-4.5h-9.3v-2.7h9.3v-4.6h2.9v4.6h9.6v2.7h-9.6v4.5h11.6v2.7h-10.2s0,0,0,0Z"/>
        <path class="st8" d="M245.4,27.7c2.6,3.4,6.7,6.5,10.5,8.2-.6.6-1.5,1.6-1.9,2.3-3.8-1.9-7.6-5.2-10.4-8.9v10h-2.9v-9.9c-2.8,3.6-6.6,6.9-10.4,8.8-.4-.7-1.3-1.8-1.9-2.3,3.9-1.6,7.9-4.8,10.6-8.1h-9.9v-2.7h11.6v-6.9h-10.2v-2.6h10.2v-3.4h2.9v3.4h10.4v2.6h-10.4v6.9h11.6v2.7h-9.8s0,0,0,0ZM235.1,18.5c1.1,1.7,2.3,3.9,2.7,5.4l-2.6,1c-.4-1.4-1.4-3.8-2.5-5.5l2.4-.9h0ZM246.6,24.2c1-1.6,2.1-4,2.8-5.7l2.9.9c-1,2-2.3,4.3-3.3,5.7l-2.4-.8h0s0,0,0,0Z"/>
      </g>
    </g>
    <g>
      <g>
        <path d="M44.5,63.8h34.6l-2.1,9.7h-23.9l-7,33.5h22.6l-2.1,9.7h-22.6l-10.3,48.6h-10.7l21.6-101.5h0Z"/>
        <path d="M123.3,89.8l-10.8,50.4c-3.6,16.7-8.9,26.5-24.9,26.5s-20.5-11.4-17.2-27.3l10.9-51.9c3.3-15.8,10.6-25,24.5-25s20.9,11.3,17.5,27.3h0ZM92.1,87.4l-11.3,53.3c-2.4,11-.1,16.9,7.9,16.9s10.6-5.5,13-16.6l11.3-52.8c2.3-10.8-.3-16.5-8.1-16.5s-10.6,5.7-12.7,15.7h0Z"/>
        <path d="M140,117.3l-10.2,48h-10.5l21.6-101.5h16.1c15.2,0,20.8,9.3,17.8,24.1l-1.2,6.2c-2.9,14.2-8.9,17.9-14.5,19.2,5.6,3.1,7.6,9.2,4.7,23.1-1.8,8.6-4.9,22.5-5.1,28.9h-10.5c.2-6.5,3.3-19.9,5.7-31.7,2.5-12.6,0-16.3-9-16.3h-4.9ZM142,108.2h4.5c11,0,14.6-3.5,16.6-14.7l1.2-6.3c1.7-9.1,0-14.4-9.2-14.4h-5.6l-7.5,35.3Z"/>
        <path d="M209.9,63.8h34.6l-2.1,9.7h-23.9l-7,33.5h22.6l-2.1,9.7h-22.6l-10.3,48.6h-10.7l21.6-101.5h0Z"/>
        <path d="M263.5,63.8l-16.7,78.8c-1.7,7.9-.6,14.5,7.8,14.5s10.7-6.2,12.5-14.6l16.7-78.6h10.7l-16.5,77.7c-3.4,15.9-8.2,25.1-24.4,25.1s-20.6-8.3-17.1-24.6l16.6-78.2h10.5Z"/>
        <path d="M313.6,73.5h-15.8l2.1-9.7h42.1l-2.1,9.7h-15.7l-19.5,91.8h-10.5l19.5-91.8h0Z"/>
        <path d="M358.5,63.8l-16.7,78.8c-1.7,7.9-.6,14.5,7.8,14.5s10.7-6.2,12.5-14.6l16.7-78.6h10.7l-16.5,77.7c-3.4,15.9-8.2,25.1-24.4,25.1s-20.6-8.3-17.1-24.6l16.6-78.2h10.5Z"/>
        <path d="M402,117.3l-10.2,48h-10.5l21.6-101.5h16.1c15.2,0,20.8,9.3,17.8,24.1l-1.2,6.2c-2.9,14.2-8.9,17.9-14.5,19.2,5.6,3.1,7.6,9.2,4.7,23.1-1.8,8.6-4.9,22.5-5.1,28.9h-10.5c.2-6.5,3.3-19.9,5.7-31.7,2.5-12.6,0-16.3-9-16.3h-4.9ZM404,108.2h4.5c11,0,14.6-3.5,16.6-14.7l1.2-6.3c1.7-9.1,0-14.4-9.2-14.4h-5.6l-7.5,35.3h0Z"/>
        <path d="M474.5,115.9h-21.9l-8.3,39.8h25.9l-3.3,9.6h-35.2l21.6-101.5h33.7l-2.1,9.6h-23.2l-6.9,32.8h22l-2.2,9.6h0Z"/>
      </g>
      <g>
        <path class="st5" d="M44.5,63.8h34.6l-2.1,9.7h-23.9l-7,33.5h22.6l-2.1,9.7h-22.6l-10.3,48.6h-10.7l21.6-101.5h0Z"/>
        <path class="st4" d="M123.3,89.8l-10.8,50.4c-3.6,16.7-8.9,26.5-24.9,26.5s-20.5-11.4-17.2-27.3l10.9-51.9c3.3-15.8,10.6-25,24.5-25s20.9,11.3,17.5,27.3h0ZM92.1,87.4l-11.3,53.3c-2.4,11-.1,16.9,7.9,16.9s10.6-5.5,13-16.6l11.3-52.8c2.3-10.8-.3-16.5-8.1-16.5s-10.6,5.7-12.7,15.7h0Z"/>
        <path class="st3" d="M140,117.3l-10.2,48h-10.5l21.6-101.5h16.1c15.2,0,20.8,9.3,17.8,24.1l-1.2,6.2c-2.9,14.2-8.9,17.9-14.5,19.2,5.6,3.1,7.6,9.2,4.7,23.1-1.8,8.6-4.9,22.5-5.1,28.9h-10.5c.2-6.5,3.3-19.9,5.7-31.7,2.5-12.6,0-16.3-9-16.3h-4.9ZM142,108.2h4.5c11,0,14.6-3.5,16.6-14.7l1.2-6.3c1.7-9.1,0-14.4-9.2-14.4h-5.6l-7.5,35.3Z"/>
        <path class="st2" d="M209.9,63.8h34.6l-2.1,9.7h-23.9l-7,33.5h22.6l-2.1,9.7h-22.6l-10.3,48.6h-10.7l21.6-101.5h0Z"/>
        <path class="st1" d="M263.5,63.8l-16.7,78.8c-1.7,7.9-.6,14.5,7.8,14.5s10.7-6.2,12.5-14.6l16.7-78.6h10.7l-16.5,77.7c-3.4,15.9-8.2,25.1-24.4,25.1s-20.6-8.3-17.1-24.6l16.6-78.2h10.5Z"/>
        <path class="st7" d="M313.6,73.5h-15.8l2.1-9.7h42.1l-2.1,9.7h-15.7l-19.5,91.8h-10.5l19.5-91.8h0Z"/>
        <path class="st6" d="M358.5,63.8l-16.7,78.8c-1.7,7.9-.6,14.5,7.8,14.5s10.7-6.2,12.5-14.6l16.7-78.6h10.7l-16.5,77.7c-3.4,15.9-8.2,25.1-24.4,25.1s-20.6-8.3-17.1-24.6l16.6-78.2h10.5Z"/>
        <path class="st0" d="M402,117.3l-10.2,48h-10.5l21.6-101.5h16.1c15.2,0,20.8,9.3,17.8,24.1l-1.2,6.2c-2.9,14.2-8.9,17.9-14.5,19.2,5.6,3.1,7.6,9.2,4.7,23.1-1.8,8.6-4.9,22.5-5.1,28.9h-10.5c.2-6.5,3.3-19.9,5.7-31.7,2.5-12.6,0-16.3-9-16.3h-4.9ZM404,108.2h4.5c11,0,14.6-3.5,16.6-14.7l1.2-6.3c1.7-9.1,0-14.4-9.2-14.4h-5.6l-7.5,35.3h0Z"/>
        <path class="st11" d="M474.5,115.9h-21.9l-8.3,39.8h25.9l-3.3,9.6h-35.2l21.6-101.5h33.7l-2.1,9.6h-23.2l-6.9,32.8h22l-2.2,9.6h0Z"/>
      </g>
    </g>
  </g>
</svg>