<svg xmlns="http://www.w3.org/2000/svg" viewBox="0 0 560 429" role="img" aria-label="長崎・佐賀の地図"><path d="M313,53 312,52 311,51 308,50 307,51 306,50 305,48 306,47 307,46 306,47 304,46 303,45 303,43 304,41 306,39 304,40 303,39 302,37 300,36 301,34 299,35 298,37 299,38 297,38 296,39 296,41 295,40 295,38 294,37 293,36 294,34 295,33 293,33 294,32 293,33 293,31 292,32 293,30 295,30 297,32 297,30 298,31 300,32 302,33 303,35 304,34 303,33 303,31 302,32 302,30 301,29 302,28 301,29 297,29 296,28 296,24 297,25 295,22 296,21 298,21 294,19 296,16 297,18 298,17 299,18 299,20 300,19 300,21 301,22 302,21 301,20 302,19 304,19 303,17 302,15 301,14 301,12 300,10 300,8 302,6 304,6 302,6 304,3 305,2 306,3 309,3 307,2 308,1 309,0 311,0 310,1 311,3 313,2 315,4 317,4 320,5 323,5 325,6 327,6 328,7 327,9 327,11 326,12 326,14 325,15 326,16 324,18 322,18 321,19 322,18 323,19 324,20 325,19 326,21 329,23 330,22 331,24 332,25 335,25 335,28 334,27 333,26 331,26 329,26 327,26 325,28 324,29 325,30 327,32 328,31 330,30 332,31 333,33 336,33 335,34 335,36 333,35 333,38 332,39 333,40 331,40 329,41 327,41 325,41 324,40 323,41 321,41 318,41 317,42 318,45 316,45 314,48 314,50 313,51 313,53ZM217,230 215,228 210,226 211,225 212,224 213,223 212,222 211,219 212,218 213,219 214,220 216,222 215,224 216,223 217,224 218,225 220,224 221,225 223,225 224,227 225,225 225,223 226,222 225,220 223,221 222,220 219,218 219,216 219,214 219,211 220,210 222,209 223,208 224,207 226,207 228,207 230,210 231,212 232,211 231,210 230,207 232,209 233,208 232,207 231,206 232,205 231,204 229,203 228,204 227,203 226,202 227,201 228,200 225,198 226,197 226,195 228,195 229,194 231,193 232,192 230,191 231,190 234,189 236,190 237,189 236,187 235,186 235,184 234,183 233,182 235,181 235,179 236,178 236,175 235,174 236,173 235,172 236,170 238,170 243,169 245,170 247,168 248,169 249,168 252,168 253,167 254,165 253,162 254,161 255,160 257,160 258,161 257,162 257,164 256,168 257,169 259,168 260,165 261,164 260,161 259,160 260,161 261,162 262,161 263,162 264,163 263,161 265,161 267,160 266,157 265,158 264,157 262,157 260,157 259,158 257,157 258,156 260,155 257,154 258,153 259,152 260,153 262,152 264,151 266,151 267,150 269,153 268,154 269,156 268,157 269,158 270,159 269,161 268,162 267,163 269,163 268,165 269,166 271,167 270,168 268,169 267,170 265,171 265,173 264,175 265,176 263,176 259,177 258,178 257,177 256,176 257,179 258,180 259,181 260,182 261,183 260,186 258,185 255,186 253,187 254,189 256,190 254,191 252,192 250,192 249,191 248,192 249,194 251,194 252,195 253,196 253,200 252,201 251,202 249,203 248,205 246,208 245,210 244,211 242,215 239,215 238,217 239,218 238,217 237,218 236,220 234,223 231,224 230,225 226,226 224,228 218,230ZM289,166 289,164 291,164 293,165 294,163 296,164 296,162 297,161 298,160 299,158 298,157 298,155 300,154 301,155 302,156 304,157 304,159 302,158 301,164 300,163 299,166 301,166 302,169 304,169 304,166 307,166 307,168 306,169 308,169 308,171 310,171 312,170 314,170 315,169 316,168 318,167 319,166 321,164 324,165 326,169 328,169 329,168 328,167 329,165 329,163 332,163 334,164 333,167 334,168 334,171 334,173 331,175 330,176 327,180 327,182 326,185 325,190 327,191 330,197 335,201 336,202 339,206 340,208 339,210 340,213 339,214 338,217 339,219 341,221 341,224 344,227 347,229 348,228 351,228 353,230 356,231 358,232 359,233 361,234 363,233 364,234 366,234 368,232 369,233 373,232 375,231 376,232 376,234 378,242 380,244 380,248 378,250 375,249 373,250 372,251 371,254 370,256 373,257 374,260 375,261 377,263 379,264 383,265 385,266 386,267 387,268 389,269 390,270 391,272 390,273 391,275 392,277 393,278 395,280 397,280 399,279 400,280 400,282 403,284 404,285 405,287 406,289 409,291 412,291 413,290 415,292 416,294 418,295 420,295 423,296 426,296 429,297 431,296 433,296 434,299 436,299 439,299 442,299 446,300 449,300 448,302 449,304 448,305 449,306 448,307 449,308 448,310 446,310 444,312 445,313 444,314 442,315 441,314 439,315 438,317 436,317 435,319 433,320 431,321 430,319 428,320 430,322 425,325 424,324 422,326 421,328 417,330 417,332 418,333 418,331 424,328 426,328 431,335 428,338 432,336 434,337 436,338 437,339 441,338 444,339 445,338 446,337 447,336 449,335 451,334 454,333 457,331 460,328 465,329 466,328 468,328 471,327 474,326 477,327 479,328 481,330 485,332 487,334 488,336 489,340 490,343 491,344 492,348 494,347 493,348 494,350 496,355 498,356 496,356 497,357 498,360 497,361 496,363 495,364 496,365 497,367 497,369 497,373 496,374 495,376 491,380 490,382 489,383 489,385 492,387 492,389 491,390 491,392 490,393 488,395 485,395 486,397 485,396 484,398 482,397 482,399 479,400 478,401 477,402 474,402 472,402 471,401 466,402 465,401 467,403 464,406 465,407 464,409 461,410 459,410 457,414 456,415 454,417 452,417 450,417 448,416 446,416 445,415 444,416 446,418 447,417 446,419 445,420 443,421 439,422 439,420 441,418 440,414 439,412 437,410 436,411 435,410 433,407 431,407 429,406 428,404 428,401 429,396 429,393 428,391 428,389 429,390 429,392 431,392 432,393 434,392 436,391 437,388 439,388 440,385 444,383 445,381 447,380 449,379 448,378 449,377 450,376 451,373 450,368 449,367 448,368 446,365 444,365 445,364 445,362 444,361 446,359 442,355 440,355 434,354 432,354 430,356 427,357 426,356 422,355 417,355 416,354 415,355 412,356 408,359 404,363 400,364 401,365 399,366 396,366 394,367 393,366 391,365 390,368 389,366 387,365 384,364 381,364 380,365 378,366 377,367 378,368 379,369 380,372 379,373 378,374 375,376 376,377 374,380 373,378 372,379 372,381 371,382 370,383 368,382 368,384 367,385 368,384 368,387 367,390 365,392 364,396 363,398 362,399 360,402 358,401 356,402 356,404 354,404 353,405 351,406 349,406 347,405 346,406 347,407 346,408 346,410 347,412 345,414 344,415 342,417 339,420 338,422 335,423 334,424 332,425 330,425 330,427 332,426 331,427 329,425 327,425 325,425 323,426 321,427 319,429 318,426 320,425 321,423 322,422 323,423 323,425 324,423 323,421 326,421 328,420 329,419 330,418 331,417 330,416 331,415 333,415 334,412 333,410 334,409 335,408 336,406 337,404 339,400 340,401 341,397 341,395 342,391 341,390 339,390 340,391 338,392 337,393 336,392 335,391 334,389 333,390 334,388 336,388 337,389 338,388 340,387 341,386 341,384 343,383 343,387 344,390 345,389 346,390 347,389 345,388 346,386 347,387 349,386 348,385 350,384 350,380 352,378 353,379 353,377 355,373 356,371 356,369 355,370 354,371 353,372 352,374 351,376 350,375 351,376 349,377 349,379 347,376 346,379 345,377 344,379 343,380 342,379 344,375 344,373 344,371 343,370 342,371 341,372 338,371 340,368 340,366 339,365 338,366 339,367 338,368 337,366 336,365 335,366 335,364 336,363 336,361 337,360 335,360 333,358 334,357 331,356 330,354 327,354 327,351 328,348 329,346 327,348 326,347 325,346 323,347 322,345 320,348 319,351 318,350 317,348 316,347 315,346 314,345 313,342 312,341 310,342 308,340 307,338 306,337 304,335 302,330 302,328 302,325 299,321 299,318 297,316 298,314 297,313 295,309 292,309 291,313 291,311 289,310 291,310 290,309 290,307 291,308 291,306 291,304 289,303 287,302 290,303 289,301 288,300 289,298 288,297 288,293 289,291 290,290 292,289 293,290 295,291 295,288 294,287 296,286 297,285 295,285 296,283 294,281 294,277 293,274 294,272 297,273 297,271 298,269 297,267 299,265 302,266 300,264 297,263 298,262 299,263 300,262 301,261 302,260 300,260 299,261 297,261 299,260 301,258 302,257 301,256 302,254 304,254 305,255 307,257 308,256 309,258 310,260 310,258 311,257 312,258 313,260 314,261 313,262 314,263 315,262 316,261 318,264 318,266 317,267 316,269 316,271 318,271 318,268 320,270 320,268 319,267 321,266 322,268 325,269 325,271 323,273 322,274 321,273 320,277 318,280 317,281 318,282 317,283 320,285 319,286 317,286 318,287 319,288 319,290 321,290 320,289 321,288 323,286 323,288 325,288 324,286 326,286 327,287 326,285 325,286 324,285 323,286 324,283 325,281 326,279 327,280 328,282 330,282 331,284 333,284 336,284 337,285 338,286 340,287 339,288 340,289 339,291 342,292 343,295 341,295 341,297 340,296 338,298 339,299 340,301 341,304 341,306 340,307 341,308 340,309 340,311 339,313 337,313 336,312 335,311 336,310 337,308 336,307 335,309 335,306 335,304 336,303 336,301 335,302 332,303 332,307 332,309 332,311 333,313 334,314 333,315 332,317 333,320 333,318 335,319 334,318 335,317 338,317 337,316 337,318 338,320 338,322 339,321 339,323 338,324 337,325 336,326 335,325 336,324 335,323 334,324 334,327 333,330 334,328 335,329 336,330 337,331 339,331 340,332 342,333 343,334 344,337 346,336 348,338 348,340 349,341 350,342 349,340 350,339 351,338 350,336 351,334 352,335 353,337 354,338 355,337 356,336 356,334 356,332 358,332 359,330 358,328 359,325 360,328 361,329 362,330 363,326 365,327 367,330 368,331 369,330 371,331 373,331 372,332 373,333 375,332 378,332 380,334 380,336 381,337 383,337 384,336 385,337 386,338 386,340 388,341 388,339 390,339 390,341 391,340 393,340 394,339 394,337 393,338 392,337 391,336 390,333 388,333 386,330 385,329 383,329 382,328 382,325 384,324 383,322 382,323 380,322 379,321 378,320 379,318 378,317 377,316 374,313 373,311 372,308 373,301 372,299 373,298 372,297 373,295 374,296 374,294 375,295 377,293 378,291 378,289 377,287 377,285 377,283 374,279 370,275 369,276 368,275 367,273 365,270 364,269 362,267 358,265 356,265 354,265 351,266 350,268 349,270 348,269 347,268 346,270 345,273 343,274 342,271 344,269 342,269 343,268 345,268 347,266 345,266 344,265 343,264 341,264 342,265 340,265 339,264 337,264 336,263 338,262 336,263 337,261 336,260 335,259 332,259 331,260 330,261 329,260 328,259 327,261 326,260 327,259 326,258 327,257 327,255 328,253 326,254 326,257 325,258 324,259 325,260 326,262 327,261 327,263 328,262 328,264 330,264 331,266 328,266 326,267 327,268 326,269 324,268 324,266 324,264 324,266 323,265 321,266 320,265 321,264 319,263 320,262 321,261 321,259 319,260 318,258 318,256 316,253 317,252 318,253 319,252 321,254 322,253 323,251 321,249 320,248 320,246 321,245 323,248 325,249 324,247 325,246 324,244 327,245 329,244 327,243 325,242 325,240 327,239 329,239 331,239 332,240 331,238 328,239 327,237 325,238 325,240 324,239 323,238 324,237 322,238 321,239 321,241 320,242 318,242 318,240 317,241 318,244 317,245 316,244 316,242 314,241 314,239 316,238 316,236 315,237 314,235 316,234 315,233 314,231 315,232 314,233 313,231 312,233 311,232 309,232 310,233 309,232 308,233 310,235 310,238 309,239 311,240 311,242 311,245 309,245 310,247 311,248 309,247 308,249 306,247 302,248 301,247 301,249 300,250 299,252 298,250 297,249 297,246 296,243 297,242 298,243 297,244 298,245 299,244 301,244 303,244 302,242 304,242 303,241 304,240 305,241 307,241 308,240 306,240 305,239 303,238 303,236 302,235 302,232 303,233 302,231 301,232 300,231 299,232 298,231 295,229 294,230 293,229 291,230 290,231 291,230 291,228 292,229 293,228 292,226 293,227 294,226 295,225 296,224 295,225 295,223 296,222 294,222 293,220 293,218 294,217 291,214 291,212 291,214 291,218 291,220 290,221 288,222 288,224 287,223 286,222 285,221 286,220 286,218 287,219 286,218 286,214 285,217 284,219 283,218 282,219 281,218 282,214 284,213 281,213 281,215 280,216 279,217 279,214 278,215 277,216 276,214 273,215 272,213 271,214 269,214 268,215 267,214 269,214 268,213 269,212 268,211 269,210 268,209 267,210 268,209 270,210 271,209 271,207 271,205 270,206 268,206 269,205 268,204 270,204 271,203 270,202 271,201 271,199 273,200 272,198 272,196 273,198 273,196 274,193 274,195 274,198 275,196 276,197 277,196 278,195 277,194 277,192 277,190 275,190 276,189 277,188 277,190 278,188 279,187 280,186 282,183 284,184 286,183 283,182 280,183 278,185 276,185 276,183 275,184 273,184 274,183 273,182 271,180 270,179 270,176 273,177 272,175 273,173 273,171 274,166 272,164 271,161 273,162 274,160 275,161 277,161 278,160 280,160 278,162 278,164 280,162 281,163 282,164 284,162 285,161 285,163 287,165 288,166ZM129,347 128,346 125,345 124,344 125,345 127,343 125,343 126,340 125,338 126,335 124,333 125,330 124,328 124,326 125,327 126,328 127,327 126,326 125,325 124,324 126,324 127,325 128,326 128,324 129,323 128,322 127,323 126,322 124,321 123,320 124,319 124,317 125,318 127,320 127,317 128,318 129,319 129,321 130,320 130,318 130,316 128,317 127,316 126,314 127,313 125,312 123,311 122,313 120,313 121,311 121,309 122,310 123,309 123,307 122,303 122,305 121,308 120,306 119,308 118,307 116,307 117,305 116,303 114,306 112,306 111,305 110,304 112,304 111,303 113,303 114,302 112,302 112,300 113,299 112,298 113,296 115,295 116,294 116,296 117,298 117,294 119,295 119,297 120,298 121,299 121,297 122,296 123,294 126,294 126,298 126,301 127,298 127,295 127,293 129,295 129,292 131,293 130,292 128,293 126,291 124,289 126,288 124,285 124,283 125,282 124,280 125,278 124,277 125,276 126,274 127,273 129,273 131,272 132,280 133,279 136,279 137,278 136,277 135,275 134,274 136,272 135,271 135,269 133,268 134,267 135,266 136,262 137,260 139,260 142,258 142,255 143,254 142,252 140,252 141,250 141,248 139,246 140,245 139,244 140,242 141,240 142,237 142,234 143,232 145,233 144,236 143,237 144,239 143,242 142,244 141,245 144,248 146,251 145,254 146,255 145,256 145,258 144,260 143,261 143,263 143,265 142,266 141,267 140,268 142,270 140,270 140,272 138,273 138,276 140,278 137,280 139,284 138,285 139,288 137,291 135,291 137,292 138,293 139,291 140,292 141,291 142,292 143,291 145,290 146,291 147,290 148,289 150,287 150,285 151,286 153,285 154,286 156,286 157,285 158,284 159,285 160,286 160,284 163,285 164,286 162,286 161,287 162,288 161,289 162,291 163,293 163,295 161,296 160,298 157,299 156,300 154,301 153,303 152,306 151,307 149,305 148,307 147,306 146,307 144,303 143,302 142,301 141,300 141,303 142,302 143,304 143,307 142,308 143,309 142,311 141,310 140,311 136,311 137,313 139,313 138,316 138,318 136,318 135,321 137,321 136,323 138,323 137,325 135,326 137,326 139,325 139,327 140,328 138,329 140,329 140,331 140,333 139,334 137,334 134,332 133,333 131,332 131,334 130,336 128,336 129,337 130,338 130,340 131,343 130,347ZM75,365 73,364 72,362 71,360 69,360 68,359 67,360 66,358 67,357 67,355 65,353 67,352 67,350 66,347 67,344 65,343 66,341 67,340 68,341 70,341 70,343 71,342 72,341 74,342 74,345 74,347 75,350 74,351 75,352 77,353 78,352 79,351 77,350 78,349 78,347 77,346 75,346 76,345 75,344 75,342 74,340 74,338 77,340 80,341 80,343 81,345 82,344 84,345 84,347 85,348 85,350 86,352 87,353 86,354 85,355 85,357 83,357 82,359 81,360 80,363 78,365 77,364 75,365ZM49,427 46,427 43,426 42,423 42,421 41,420 39,417 37,416 35,417 33,417 28,417 27,418 25,418 23,417 21,417 20,416 16,418 17,420 16,422 14,422 13,421 10,421 10,419 9,418 8,417 7,416 5,416 2,415 0,415 1,411 3,410 3,408 3,406 3,403 5,404 6,406 5,407 7,407 5,408 4,410 5,413 5,411 6,409 8,410 7,411 7,413 9,412 10,414 11,416 12,415 14,415 13,417 14,416 16,415 15,413 16,411 18,410 19,409 18,408 16,409 14,411 13,412 12,413 13,411 11,411 11,408 12,407 13,406 15,406 14,403 13,401 14,402 16,403 18,404 18,401 16,402 15,401 14,400 16,400 17,399 18,400 19,401 20,402 19,399 18,397 20,397 21,396 22,395 20,395 19,396 18,395 17,394 16,393 14,392 15,391 15,388 14,387 14,385 16,385 17,386 17,384 18,383 17,382 15,381 13,379 14,374 15,373 15,371 14,370 14,368 13,366 12,365 13,364 14,363 15,361 16,359 18,358 19,359 21,359 22,360 23,361 24,362 25,363 28,364 28,368 28,370 27,371 26,373 28,373 30,373 30,371 31,369 33,369 34,368 36,367 38,367 39,368 37,368 36,369 35,370 37,370 40,369 39,370 38,373 39,372 40,371 41,370 42,369 40,368 41,367 42,366 43,367 43,365 43,363 45,364 46,365 46,367 47,368 47,371 48,372 48,374 50,374 49,370 50,368 54,366 56,367 54,364 53,365 51,365 49,367 47,366 47,364 49,362 50,360 51,361 52,360 53,361 55,360 53,359 54,358 56,358 55,357 54,356 56,356 57,355 59,353 59,355 59,358 59,360 58,361 60,362 61,363 62,364 64,366 63,367 62,366 60,367 58,366 59,368 60,370 62,369 63,368 64,367 66,366 67,367 65,368 63,371 64,372 65,370 66,369 66,371 67,370 69,370 68,369 70,368 72,371 70,372 69,371 68,372 69,373 68,377 68,381 69,384 70,386 71,389 73,391 77,393 79,396 80,398 80,400 83,401 83,404 82,405 80,405 79,406 77,406 76,404 75,405 72,405 70,405 69,406 65,406 64,407 63,406 62,407 61,406 61,404 59,404 60,402 59,401 57,402 54,403 51,404 49,404 48,405 47,406 47,408 47,410 46,411 47,413 48,412 48,414 49,415 50,414 52,416 54,416 53,418 54,419 54,421 53,423 52,422 51,423 50,425 49,426Z" fill="url(#g)"/><path d="M419,130 421,131 423,131 425,130 428,130 430,131 433,131 437,130 438,128 440,129 443,129 445,129 447,130 449,129 450,128 453,129 454,130 456,131 458,132 460,131 461,130 462,129 463,128 464,127 466,127 469,127 470,128 472,128 474,128 475,129 477,129 478,130 481,128 485,127 486,128 487,129 489,130 492,133 494,133 496,134 498,134 502,137 503,139 505,139 508,142 510,142 512,142 513,143 514,145 517,144 518,145 519,144 520,146 521,147 522,148 525,150 523,153 523,155 524,154 526,153 527,154 529,154 531,153 532,150 533,148 534,147 537,147 537,145 538,144 542,141 545,140 547,139 550,138 551,139 552,137 554,138 556,139 558,140 559,141 558,142 559,146 560,147 560,155 560,165 559,169 558,172 557,171 555,173 553,173 551,172 550,174 549,177 548,178 544,176 543,177 542,178 544,180 545,181 545,183 543,185 537,185 536,186 536,189 539,190 539,192 536,192 534,195 534,198 532,199 530,196 531,193 531,190 529,189 528,190 529,192 528,196 526,196 525,197 526,200 525,202 523,204 521,204 521,202 520,200 518,200 517,202 518,205 516,206 514,206 513,205 512,208 513,209 514,210 514,213 513,214 509,215 507,217 504,217 503,219 504,224 505,226 507,226 507,230 508,238 508,240 498,238 489,237 488,235 488,233 486,232 486,230 482,227 479,223 480,221 480,219 478,219 478,222 474,222 473,221 470,220 469,221 470,222 472,222 473,224 471,230 464,236 462,238 456,243 450,249 445,247 445,245 443,245 444,248 444,250 443,251 442,252 440,253 443,252 445,252 446,254 445,255 448,255 449,258 448,259 449,261 450,263 453,266 454,268 455,269 456,270 456,272 456,274 458,276 459,278 459,280 460,282 461,285 461,287 462,286 462,289 463,290 464,289 466,291 467,292 468,293 470,294 471,297 470,299 469,300 465,301 462,300 459,299 455,299 452,299 449,296 447,296 445,297 443,296 441,296 439,296 438,295 436,295 434,295 432,294 431,292 430,290 428,291 426,291 423,289 422,287 421,285 420,284 416,282 417,280 415,279 413,280 411,280 410,278 409,277 408,275 407,273 407,270 405,269 404,268 403,267 401,266 399,265 395,264 393,263 392,262 391,261 390,258 387,256 388,254 387,251 389,250 391,249 395,250 396,248 396,244 395,242 392,234 393,232 391,231 390,232 386,233 384,232 382,234 380,234 378,234 376,233 374,232 373,231 371,230 369,230 367,228 365,228 363,229 361,227 358,225 357,224 357,221 355,219 355,217 355,214 356,213 355,211 356,209 356,206 352,202 351,201 346,197 343,191 342,190 342,186 343,185 343,182 344,180 346,176 347,175 350,173 351,175 353,176 354,178 355,179 357,179 356,180 356,182 358,181 356,183 358,183 361,188 362,190 363,191 365,189 367,190 366,187 364,186 361,185 360,183 362,183 363,181 364,179 365,178 366,177 364,176 362,177 361,175 360,174 362,174 363,175 364,173 366,174 365,173 366,172 364,171 366,171 367,170 365,169 366,168 366,166 367,165 369,164 369,162 370,161 371,162 371,159 371,157 372,158 371,156 372,155 371,154 372,152 370,152 371,151 370,149 369,150 370,152 368,152 364,151 363,150 361,149 359,150 359,148 360,147 361,146 359,146 358,145 356,143 355,142 353,141 352,140 350,139 349,137 348,136 350,134 351,135 352,134 352,136 354,135 354,133 352,133 352,131 351,130 352,129 353,128 354,125 356,127 357,126 360,128 359,129 360,131 362,132 363,133 363,135 362,137 363,139 363,137 365,139 366,138 367,137 368,135 369,136 368,135 368,132 367,131 368,130 366,129 365,130 363,130 362,129 361,128 363,127 365,127 364,126 363,125 362,124 363,123 364,124 364,122 361,119 362,118 362,116 361,115 362,114 363,115 365,115 366,116 366,118 368,119 368,117 369,116 366,115 366,113 364,113 365,112 367,113 368,114 367,112 368,110 366,108 367,107 366,106 366,104 367,103 365,102 367,102 368,103 369,105 370,106 371,107 373,108 375,110 374,112 373,114 374,115 374,113 376,113 376,111 375,110 376,108 377,107 378,108 378,105 379,104 380,105 382,106 383,104 383,106 385,106 388,105 389,104 389,108 394,111 395,110 396,111 397,113 396,114 397,116 400,116 399,117 398,119 397,118 395,119 393,122 393,124 392,126 391,127 391,129 394,130 394,128 396,131 395,129 396,128 397,130 397,128 397,126 400,128 399,129 397,131 398,133 397,132 399,133 398,134 399,135 402,135 403,136 408,138 414,138 418,137 420,135 419,133 419,130Z" fill="url(#g)"/><defs><linearGradient id="g" x1="0" y1="0" x2="1" y2="1"><stop offset="0" stop-color="#de5f5c"/><stop offset="1" stop-color="#d99354"/></linearGradient></defs></svg>