<svg xmlns="http://www.w3.org/2000/svg" viewBox="0 0 320 456" role="img" aria-label="nagasakiの地図"><path d="M141,60 140,59 139,58 138,60 138,62 139,60 138,59 139,60 140,61 140,63 139,64 138,65 137,66 136,67 135,68 137,68 138,67 139,66 140,67 141,66 142,65 143,64 144,63 143,64 143,66 142,67 142,69 141,68 141,70 140,69 141,71 140,72 141,71 142,72 143,74 142,75 141,76 140,77 138,77 140,77 141,78 142,77 143,79 142,81 141,80 142,79 141,80 140,79 138,78 139,80 140,81 139,82 140,81 139,82 140,83 139,84 140,83 139,84 139,82 138,83 137,82 138,83 139,84 138,85 137,86 136,87 135,88 136,85 135,86 134,87 134,85 133,84 133,86 132,85 133,84 132,83 133,82 135,82 136,83 135,82 134,81 135,80 134,79 136,79 137,78 135,78 136,77 135,78 136,77 135,76 134,75 135,73 136,71 135,70 134,71 134,73 133,72 132,73 133,71 133,69 132,71 131,72 130,73 131,74 130,73 131,74 131,76 130,75 130,77 129,75 129,78 128,79 128,77 127,78 126,77 127,76 128,75 127,74 127,72 126,73 126,71 127,70 128,69 127,68 126,69 125,71 124,70 124,68 123,69 124,70 125,71 124,72 123,73 124,74 125,75 124,76 124,78 124,76 123,75 123,77 122,76 121,75 118,75 117,76 115,76 114,75 113,74 114,73 115,72 116,73 117,74 118,73 119,72 121,71 122,70 122,68 121,69 121,67 121,65 121,63 122,62 121,61 121,59 122,60 121,59 123,59 122,58 122,56 124,57 125,58 125,56 126,55 127,54 128,55 127,54 128,52 129,51 128,52 127,53 125,54 124,55 123,54 122,53 121,51 122,50 123,48 124,47 125,45 126,43 127,42 126,41 127,39 128,38 128,40 129,41 128,40 129,39 130,38 129,37 130,36 131,37 132,38 133,37 134,38 133,36 132,37 131,36 131,34 129,34 129,32 128,31 127,30 125,32 124,31 124,29 126,27 127,25 127,23 128,20 129,18 130,16 130,13 131,12 133,14 132,15 134,13 136,12 137,13 138,15 139,13 140,14 142,14 141,13 142,12 143,10 144,9 145,8 145,6 147,7 148,6 149,7 150,6 149,5 147,6 147,4 148,2 149,3 151,3 152,2 153,0 153,2 154,1 154,3 155,2 156,1 157,2 157,4 158,3 157,4 158,5 157,6 158,7 160,7 160,5 161,6 160,7 159,8 160,9 161,8 159,10 158,11 157,10 156,11 157,12 158,13 159,14 160,13 160,15 159,16 158,17 157,18 158,19 156,19 155,20 154,19 154,17 153,18 153,16 152,17 153,18 154,20 153,19 151,19 150,21 152,20 153,21 154,22 155,21 157,21 157,23 158,24 157,25 158,26 157,28 158,29 157,30 157,32 156,33 154,32 155,34 155,36 154,37 153,38 152,40 151,41 150,43 149,44 148,45 147,46 146,47 144,49 143,50 142,51 141,52 142,53 140,54 139,53 139,55 140,56 141,57 141,59ZM111,133 110,132 111,131 111,129 110,128 111,127 110,128 109,129 108,128 106,126 105,125 104,126 103,128 102,129 103,128 103,125 103,123 102,121 103,120 104,119 103,118 104,117 103,115 104,114 105,111 104,110 105,105 105,102 107,101 106,99 105,98 106,97 107,95 107,93 108,94 108,92 107,90 107,88 108,87 108,85 107,84 108,83 109,82 109,80 110,81 112,80 113,82 113,84 112,85 112,87 113,88 115,88 114,87 116,87 117,86 118,85 119,86 117,87 119,87 119,89 119,87 120,86 123,85 122,87 123,88 123,90 124,91 124,89 125,88 123,87 124,86 123,85 122,84 121,83 120,82 122,82 123,83 124,82 124,84 125,83 125,85 126,86 127,85 126,87 127,88 126,90 127,91 128,90 129,91 128,90 130,90 129,89 130,88 129,87 130,88 132,88 131,87 133,88 132,89 133,88 134,87 135,88 134,90 136,91 135,92 134,91 133,92 132,93 131,92 131,94 130,95 129,97 129,99 130,100 129,101 130,102 129,103 128,104 127,105 127,103 125,105 126,106 126,108 125,109 124,108 123,111 124,110 125,111 124,113 125,114 125,116 124,115 123,116 123,118 123,120 122,122 123,123 122,122 120,124 119,123 118,124 119,125 118,127 116,128 115,129 115,127 114,126 114,128 113,130 112,132 111,133ZM201,214 200,213 198,212 197,211 197,209 196,210 195,209 194,208 195,207 196,206 195,205 194,204 193,203 192,202 192,204 191,205 190,206 189,204 189,202 188,201 189,200 188,199 190,199 191,200 193,200 194,201 195,202 195,200 194,199 191,198 190,196 190,194 189,193 190,194 192,193 189,192 190,190 191,191 192,192 193,193 194,194 193,193 194,192 196,192 195,191 194,190 193,189 193,186 194,184 195,182 196,181 197,182 199,182 197,181 198,180 200,180 199,181 200,182 201,181 203,183 206,183 208,183 209,184 211,184 210,185 210,187 210,189 209,190 210,191 208,191 206,192 208,192 209,193 212,194 213,195 214,196 216,196 215,198 214,197 213,196 212,197 211,196 210,197 209,198 210,200 211,199 213,200 214,201 216,201 215,202 216,203 214,203 214,205 212,206 210,206 209,205 208,206 205,206 204,207 204,209 203,210 202,211 201,213ZM140,328 138,327 135,325 136,324 137,323 136,322 135,321 136,320 137,321 139,323 138,324 139,323 139,325 140,324 142,325 143,324 144,326 145,324 145,322 144,321 143,322 142,321 141,320 140,319 140,317 141,316 142,315 143,314 144,313 146,313 148,315 149,316 148,315 148,313 149,314 150,313 148,313 149,312 148,311 146,311 145,310 146,309 145,307 145,305 147,305 148,304 149,303 148,302 151,302 153,302 152,301 151,300 151,298 150,297 151,296 152,295 152,293 151,292 152,291 151,290 152,289 154,289 156,288 158,289 159,288 162,288 163,286 163,284 164,283 166,283 165,284 165,286 165,288 167,288 167,286 167,284 166,283 168,284 170,284 171,283 171,281 170,282 169,281 167,281 165,281 166,280 165,279 166,278 168,278 170,277 172,277 173,279 173,281 172,282 173,283 172,284 173,285 174,287 173,288 172,289 170,290 170,292 169,293 167,293 166,294 165,293 165,295 166,297 168,297 167,299 164,300 162,300 163,301 164,302 163,303 161,303 160,302 160,305 161,304 162,305 163,306 162,308 161,310 160,311 158,314 157,315 156,318 154,318 153,319 154,320 152,320 150,323 149,324 148,325 145,325 144,327 140,328ZM186,287 185,285 187,286 188,285 189,284 190,285 191,283 192,282 192,280 193,279 194,280 195,281 194,282 193,285 192,287 193,286 194,289 196,288 197,287 198,288 197,289 198,290 200,290 201,289 202,288 203,289 204,287 206,286 208,286 209,288 211,288 212,287 211,286 212,285 213,284 214,285 214,287 215,288 215,290 214,291 213,292 212,293 210,296 210,299 209,300 209,302 210,303 212,306 215,309 216,310 218,312 219,313 218,314 218,316 218,318 217,319 218,320 219,322 219,324 221,326 223,327 224,326 227,327 228,328 229,329 231,329 232,331 233,330 235,330 237,329 240,329 242,329 241,330 243,335 244,337 244,339 243,340 241,340 239,341 239,343 238,345 240,345 241,347 242,349 244,350 246,350 247,351 248,352 250,353 251,354 251,356 252,357 253,359 254,360 257,359 257,361 259,362 260,363 261,365 263,367 265,367 267,369 270,369 271,370 273,370 276,371 277,370 279,372 282,372 284,372 286,373 288,373 288,375 288,377 288,379 285,380 286,381 285,382 283,382 282,384 280,384 278,386 276,385 275,386 276,387 273,389 272,388 271,390 270,391 268,392 269,394 272,391 274,391 277,395 275,397 278,396 279,397 280,398 284,397 286,398 287,397 288,395 290,395 292,394 294,393 296,391 299,391 301,391 303,390 305,390 307,390 308,391 309,392 312,394 313,395 314,399 315,400 317,403 318,404 319,408 320,409 320,411 319,412 319,414 319,416 320,417 319,420 318,422 316,424 315,425 314,426 315,427 316,429 316,432 315,433 314,434 312,434 311,435 310,436 308,437 307,438 305,438 303,438 300,438 298,441 299,442 298,443 297,444 296,443 294,446 293,447 292,448 290,448 288,447 286,447 287,448 288,449 286,449 285,451 282,451 283,449 283,446 282,445 281,444 280,443 281,444 278,442 276,441 275,439 275,437 275,434 276,432 275,431 276,432 278,432 280,431 281,429 283,429 285,426 286,425 287,424 288,423 289,422 290,420 289,416 287,416 286,415 285,414 286,413 285,412 287,411 284,408 282,408 279,408 278,407 276,409 274,409 271,408 268,408 265,409 262,411 260,413 257,414 256,415 254,415 253,416 252,415 250,416 248,414 246,414 244,414 243,415 242,416 243,417 244,419 243,420 241,422 240,424 239,425 238,426 236,425 237,426 236,427 237,428 236,430 235,432 234,433 233,434 233,436 231,438 229,438 229,440 227,440 225,441 223,440 222,442 223,443 222,445 221,447 220,448 218,450 217,451 215,452 213,453 212,454 213,455 211,453 209,453 207,454 206,455 205,456 205,453 206,452 207,451 208,452 207,453 208,452 209,450 211,450 212,449 213,448 212,447 214,447 215,445 214,444 215,443 215,441 217,440 218,437 219,438 219,435 220,431 218,430 217,432 216,431 215,430 216,429 217,430 218,429 219,428 219,426 220,427 221,426 221,429 221,431 222,430 222,428 223,429 224,428 225,427 225,424 226,423 227,422 228,420 229,419 228,418 229,417 227,418 226,419 227,420 226,421 225,422 224,423 223,422 222,423 221,424 219,423 221,421 221,419 220,418 219,419 217,418 218,416 219,415 217,415 218,416 217,415 216,414 215,413 216,412 215,411 214,410 215,409 213,409 212,408 210,407 211,403 209,403 210,402 209,403 207,403 206,402 206,404 205,405 204,404 203,403 202,402 201,400 200,399 199,400 198,399 197,397 195,395 194,392 194,389 192,386 192,384 191,383 191,381 189,379 188,378 187,381 186,380 187,379 186,377 187,378 187,376 186,375 185,374 186,373 185,372 186,371 185,368 186,367 188,366 189,367 190,365 189,364 190,363 191,364 190,363 189,360 189,358 189,356 191,355 191,353 191,351 192,350 194,351 193,350 192,349 193,348 194,347 192,347 191,348 192,347 194,346 193,344 194,343 196,343 197,345 198,344 199,345 199,347 199,345 201,346 202,347 201,348 202,349 203,348 204,349 205,350 204,351 203,353 204,354 205,352 206,353 205,352 207,351 209,353 208,355 207,356 206,358 205,360 204,361 204,363 205,364 204,363 205,364 204,365 205,366 206,365 207,364 208,365 209,364 208,363 209,360 210,359 211,361 213,362 216,362 217,363 218,364 219,365 218,367 220,367 220,369 219,370 218,371 217,372 219,373 219,375 219,377 218,378 219,380 218,381 216,381 216,379 216,377 215,378 215,376 216,375 215,374 213,375 213,377 213,379 214,381 215,382 214,383 214,385 215,384 216,383 217,384 217,386 218,387 217,388 216,389 215,388 214,390 214,392 215,391 216,392 218,393 219,394 220,395 221,396 224,397 223,398 224,399 225,400 225,398 226,397 225,396 225,394 226,395 227,397 228,396 229,395 229,393 231,392 230,391 231,389 231,391 233,392 233,389 234,390 236,392 238,393 239,392 239,394 241,393 243,393 244,395 244,397 246,397 247,396 248,397 248,399 250,398 251,399 252,398 254,397 253,396 251,396 250,394 248,392 247,391 245,390 246,389 247,388 246,387 244,387 243,386 244,385 243,384 242,383 241,381 240,380 239,378 240,374 239,372 240,371 241,370 240,369 241,370 242,369 242,367 243,366 242,364 242,362 240,359 238,357 237,356 236,355 234,354 233,352 230,350 227,351 225,352 224,353 223,352 222,353 222,355 220,356 220,354 221,353 220,352 222,352 223,351 222,350 221,351 220,349 219,350 220,351 219,350 218,349 217,350 216,349 217,348 216,349 217,347 215,346 213,347 212,348 211,347 210,346 209,347 210,346 211,345 210,344 211,342 210,343 209,344 208,346 209,347 210,348 211,350 213,351 211,351 210,352 208,352 208,350 207,351 206,350 205,349 206,348 207,347 206,346 205,347 205,345 204,344 203,343 204,342 206,343 207,342 207,340 206,338 207,337 208,340 209,339 208,338 209,337 211,337 210,336 209,335 210,334 213,334 211,333 209,333 208,334 208,332 207,333 206,335 205,334 204,335 204,337 203,336 202,335 203,333 202,332 203,331 202,330 203,329 202,330 201,329 200,328 200,330 199,329 200,330 198,329 199,331 199,333 200,334 200,337 199,338 198,337 200,338 199,339 198,340 197,339 194,340 194,338 193,339 193,341 192,342 192,340 191,338 190,336 192,336 191,337 193,337 195,337 194,336 195,335 197,335 198,334 196,334 197,333 195,333 194,332 194,330 195,329 193,328 192,329 191,328 189,327 187,328 187,326 188,327 188,325 189,326 190,325 189,323 190,322 189,323 188,322 188,320 189,319 188,320 187,317 187,320 187,322 185,323 184,322 183,321 184,320 184,318 183,319 183,321 182,320 180,320 181,319 181,317 183,316 181,317 180,318 179,319 180,317 179,318 178,319 178,317 177,318 175,318 174,317 173,318 172,317 173,316 172,315 173,314 174,315 174,313 172,312 173,311 174,310 173,309 174,308 176,308 175,307 176,306 175,305 176,304 176,306 178,306 178,304 177,303 178,302 179,300 180,299 181,297 183,298 182,297 180,298 179,299 177,299 176,298 175,297 174,295 173,293 175,294 176,293 175,292 175,290 176,287 175,286 174,283 175,284 176,283 178,283 180,283 179,284 181,285 182,284 183,285 184,286 185,287ZM83,403 82,402 80,402 81,401 80,400 81,399 80,397 81,395 80,394 81,392 80,391 80,389 81,391 82,390 81,389 80,388 81,389 82,390 83,389 82,388 82,386 82,388 81,387 80,386 79,385 80,384 81,385 82,384 83,385 84,386 84,384 83,383 81,382 80,380 78,381 78,379 79,377 78,375 78,378 77,377 76,378 75,377 75,375 73,377 72,376 71,375 72,376 73,375 72,374 73,375 72,374 73,373 72,372 72,370 74,370 75,369 75,371 76,369 76,371 77,372 78,371 79,369 81,369 81,371 81,373 82,372 81,371 81,369 83,369 84,368 81,367 80,365 80,363 80,361 80,359 80,357 81,356 82,355 84,355 85,360 86,359 88,358 87,357 86,356 87,355 87,353 86,352 87,351 87,348 88,347 90,347 91,345 92,343 91,342 90,341 91,340 90,339 89,338 90,337 89,336 90,334 91,332 92,329 93,330 92,332 93,333 92,336 91,337 92,339 94,341 94,343 93,345 93,347 92,348 92,350 91,351 90,352 91,353 90,354 89,355 89,357 90,358 88,360 89,362 89,365 88,367 89,368 90,367 92,368 93,367 92,366 93,367 95,367 96,366 96,364 99,363 100,364 101,363 102,362 103,363 104,362 105,363 104,364 104,366 105,368 105,370 103,370 102,371 101,372 100,373 98,374 98,377 96,376 95,377 93,377 93,375 92,374 91,373 90,372 90,374 92,375 92,377 91,378 92,380 91,379 90,380 88,380 89,381 89,383 89,385 88,384 87,385 88,386 89,387 88,389 89,390 90,391 90,393 89,395 86,393 85,394 84,393 84,395 83,396 84,397 83,398 84,399 85,400 84,401 84,403ZM48,414 47,413 45,411 44,410 43,411 43,409 42,407 43,406 43,404 43,401 42,400 43,399 45,399 46,400 47,399 48,400 47,401 48,402 47,403 48,405 47,406 49,406 50,407 49,405 50,404 49,402 48,401 48,399 47,397 49,398 50,399 51,401 52,402 53,401 54,402 55,404 55,406 56,407 55,408 54,409 53,410 52,411 51,413 50,414 48,414ZM31,455 29,454 28,453 27,452 27,450 25,448 22,448 18,448 17,449 15,448 13,448 12,447 11,448 10,449 11,450 10,451 8,450 6,450 5,448 4,447 2,447 1,446 0,447 1,444 2,443 2,441 2,439 3,441 4,442 2,443 3,445 4,443 5,444 6,445 7,446 8,447 10,447 9,445 10,444 11,443 12,442 10,443 9,444 8,445 7,444 7,442 8,441 9,440 10,441 9,439 8,438 9,439 11,439 12,440 11,438 10,437 12,438 12,436 13,435 14,434 12,434 11,433 9,432 10,431 9,429 10,427 11,428 11,426 10,425 9,423 9,420 10,418 9,416 8,415 9,414 9,412 10,411 12,410 13,411 15,411 15,413 17,413 18,414 18,416 18,418 17,420 19,420 20,419 19,418 20,417 22,417 23,416 25,416 23,416 24,417 23,418 25,418 26,417 25,418 24,420 25,419 26,418 27,417 26,416 25,417 26,416 27,415 28,413 29,414 29,416 30,417 30,419 31,420 32,418 32,416 35,415 36,416 35,414 34,415 33,414 32,416 30,415 31,414 32,412 34,412 35,411 34,410 36,410 35,409 37,408 38,407 38,409 38,411 37,412 38,413 40,414 41,415 40,416 39,415 38,416 37,415 38,416 37,417 38,418 39,417 41,416 42,415 43,416 41,418 42,419 41,418 42,417 43,418 44,417 46,418 45,419 44,418 44,420 43,422 44,425 44,427 45,428 45,430 47,431 49,433 51,434 51,436 52,437 54,438 53,439 52,440 51,441 49,441 48,440 46,440 44,441 42,441 41,442 40,441 39,440 38,439 38,437 37,438 35,439 33,439 31,440 30,441 30,443 29,445 30,446 31,445 32,446 34,447 35,449 35,451 34,452 33,451 32,452 32,454 31,455Z" fill="url(#g)"/><defs><linearGradient id="g" x1="0" y1="0" x2="1" y2="1"><stop offset="0" stop-color="#de5f5c"/><stop offset="1" stop-color="#d99354"/></linearGradient></defs></svg>