<svg xmlns="http://www.w3.org/2000/svg" viewBox="0 0 320 291" role="img" aria-label="sagaの地図"><path d="M115,42 117,43 119,42 122,41 124,41 126,41 129,42 131,42 134,42 139,42 141,39 142,38 145,39 149,39 152,40 155,42 157,40 159,39 160,38 164,40 165,42 167,43 170,44 174,43 175,41 176,39 178,39 179,38 180,37 183,36 187,38 189,38 192,38 194,38 196,39 199,40 200,42 202,41 205,39 210,37 212,38 213,40 217,42 220,46 223,46 224,45 226,47 227,48 230,48 235,52 237,54 240,54 244,60 247,59 249,59 251,61 253,63 257,62 258,63 260,63 261,64 262,65 263,66 264,68 268,71 265,75 265,77 266,78 268,77 270,76 272,77 274,77 278,76 277,74 279,71 280,67 282,67 286,66 286,63 287,62 293,58 294,57 295,58 298,57 299,56 302,54 305,53 307,55 308,52 311,54 314,55 316,56 318,57 319,64 320,66 320,79 320,92 318,99 318,104 316,102 313,105 310,104 307,103 305,105 305,107 305,110 302,112 297,108 295,109 294,112 297,115 298,116 298,118 296,122 286,123 285,124 285,127 290,130 289,132 285,133 282,136 283,141 279,142 277,138 277,133 277,129 275,128 273,130 274,132 273,138 270,138 269,140 270,144 268,147 265,149 263,149 262,147 262,144 259,144 257,146 258,147 258,151 256,153 253,152 252,151 251,152 250,155 251,157 253,159 253,163 251,164 246,166 243,169 239,169 237,171 238,179 240,182 243,182 242,187 244,199 244,202 230,200 216,199 215,195 215,192 212,190 212,188 206,184 202,178 203,174 203,172 200,171 200,177 194,176 193,174 192,173 189,174 187,173 189,177 191,177 193,178 193,180 190,187 189,190 179,197 176,199 177,201 168,207 160,215 152,213 152,209 149,209 150,214 151,217 149,218 147,219 145,221 149,220 152,219 154,222 152,224 150,224 151,225 154,224 156,224 158,228 157,230 158,232 157,234 159,235 160,237 163,240 163,242 164,243 167,245 167,247 168,249 168,252 171,256 172,258 172,260 173,261 172,262 174,264 175,268 175,270 177,270 177,272 177,274 178,275 180,274 182,275 183,276 185,277 183,279 184,280 186,280 189,282 190,286 189,289 188,288 189,290 187,290 185,291 182,291 181,290 177,290 173,289 171,289 167,289 163,288 160,288 157,284 155,285 152,285 149,284 146,284 144,284 141,283 139,282 136,282 134,282 133,281 131,278 129,276 124,277 119,273 118,270 117,268 115,266 110,264 110,261 109,260 105,261 102,261 101,258 99,258 97,253 96,251 97,249 96,247 94,245 92,243 90,242 87,241 85,239 79,238 76,235 74,235 74,233 72,231 71,228 67,226 68,223 68,219 69,218 70,217 73,215 78,217 80,213 81,208 79,206 77,205 74,194 75,190 73,190 70,190 66,192 63,191 60,193 58,193 56,193 54,193 53,194 51,192 50,191 48,190 46,190 43,187 41,187 38,184 35,184 32,186 28,183 24,181 23,179 23,174 21,172 20,169 20,165 22,163 21,160 21,157 22,155 22,152 16,147 14,146 7,139 3,131 2,130 0,129 1,124 2,121 3,118 4,115 7,109 9,107 13,105 14,107 15,108 18,109 19,111 20,112 20,114 22,113 21,114 22,117 24,117 22,119 25,119 29,126 30,129 32,131 34,131 34,128 36,128 37,129 38,128 36,124 34,123 30,123 28,118 31,119 32,117 33,116 34,114 34,112 36,111 37,110 36,111 33,109 31,110 29,107 28,106 30,105 31,107 34,105 36,106 35,104 36,103 34,102 35,101 37,102 37,99 36,98 37,97 37,95 36,94 37,93 40,91 41,89 42,87 44,89 44,86 44,84 43,83 43,81 44,83 45,82 45,80 43,79 45,79 44,78 44,76 44,74 45,72 43,73 44,72 42,70 41,71 41,73 39,73 37,73 34,72 32,72 29,69 26,70 26,67 27,66 29,65 28,66 27,65 25,65 25,63 23,63 22,61 21,60 18,59 17,57 15,56 16,55 13,55 12,53 12,51 10,52 10,50 12,47 14,47 15,48 16,50 19,48 19,46 17,45 15,44 14,41 15,40 18,38 19,35 22,37 23,36 25,36 27,38 26,39 28,43 31,45 32,46 32,48 31,51 31,55 32,54 32,52 34,54 36,54 38,53 37,52 39,48 41,50 40,48 40,45 38,43 39,42 37,41 37,39 34,41 33,42 32,41 31,40 30,39 32,38 35,38 34,36 33,35 32,34 31,33 33,32 33,30 30,26 29,25 30,24 30,22 31,21 29,20 28,19 29,18 31,19 33,19 35,19 36,21 37,24 39,25 40,22 39,21 36,20 37,17 33,17 33,15 34,16 35,15 38,17 40,18 39,16 38,15 40,12 36,9 37,7 36,4 38,1 35,1 37,0 38,1 40,2 41,4 40,5 42,7 43,8 46,10 47,9 49,13 49,15 48,16 47,17 47,20 49,16 50,17 52,17 50,16 51,15 50,13 51,9 50,8 52,8 54,8 55,9 54,5 56,3 58,5 59,6 60,5 61,3 62,6 64,7 69,5 69,3 71,4 70,9 77,14 78,13 81,13 81,15 81,17 80,18 82,20 86,21 85,23 83,25 79,26 76,30 76,33 76,35 74,36 73,38 74,40 77,41 77,38 80,42 79,40 81,39 81,42 82,41 81,38 82,35 86,39 85,41 82,42 84,45 83,46 82,45 84,45 85,46 83,47 85,49 89,49 90,50 97,53 99,53 107,53 112,52 115,49 113,46 113,44 115,42Z" fill="url(#g)"/><defs><linearGradient id="g" x1="0" y1="0" x2="1" y2="1"><stop offset="0" stop-color="#de5f5c"/><stop offset="1" stop-color="#d99354"/></linearGradient></defs></svg>